<?xml version="1.0" encoding="UTF-8"?>
<svg width="33px" height="26px" viewBox="0 0 33 26" version="1.1" xmlns="http://www.w3.org/2000/svg" xmlns:xlink="http://www.w3.org/1999/xlink">
    <!-- Generator: sketchtool 49.3 (51167) - http://www.bohemiancoding.com/sketch -->
    <title>B0DBA249-731E-49B4-9408-A35E7DCCEA17</title>
    <desc>Created with sketchtool.</desc>
    <defs></defs>
    <g id="Desk" stroke="none" stroke-width="1" fill="none" fill-rule="evenodd">
        <g id="123---Assets" transform="translate(-892.000000, -1543.000000)" fill="#3ABBE8">
            <g id="cloud" transform="translate(892.000000, 1543.000000)">
                <path d="M20.0188317,21.6096803 C19.6336841,21.2316744 19.0094241,21.2316744 18.6242766,21.6096803 L17.4860643,22.7267871 L17.4860643,13.5484563 C17.4860643,13.0139427 17.0445805,12.5806452 16.4999683,12.5806452 C15.9553562,12.5806452 15.5138724,13.0139427 15.5138724,13.5484563 L15.5138724,22.7267871 L14.37566,21.6096803 C13.9905125,21.2316744 13.3661681,21.2316744 12.981105,21.6096803 C12.5960419,21.9876861 12.5960419,22.6003707 12.981105,22.9783765 L15.7719888,25.7175099 C15.9723331,25.9141393 16.2374599,26.0075631 16.4999683,25.9995222 C16.7624768,26.0075631 17.0276036,25.9141393 17.2279479,25.7175099 L20.0188317,22.9783765 C20.4039792,22.6003707 20.4039792,21.9876861 20.0188317,21.6096803" id="Fill-1"></path>
                <path d="M28.8387816,8.40931639 C28.8428448,8.28750721 28.8749969,8.17354278 28.8749969,8.05164739 C28.8749969,3.60513805 25.1811264,0 20.6250673,0 C17.5352854,0 14.8746105,1.67869089 13.4606245,4.13194337 C13.108188,4.07099568 12.7476251,4.02573749 12.374961,4.02573749 C9.67197604,4.02573749 7.39800964,5.72813505 6.5560485,8.08699188 C6.43326986,8.07914712 6.31437774,8.05164739 6.18753592,8.05164739 C2.75476883,8.05164739 -0.027094816,10.7830007 0.000199140525,14.1392618 C0.0272281072,17.4676783 2.85484667,20.1290323 6.26544294,20.1290323 L11.486715,20.1290323 C12.0562665,20.1290323 12.5179672,19.6785193 12.5179672,19.1225763 C12.5179672,18.5667196 12.0562665,18.1162066 11.486715,18.1162066 L6.18753592,18.1162066 C3.91348119,18.1162066 2.06243863,16.3115686 2.06243863,14.0902967 C2.06243863,11.8926453 3.8792975,10.0998175 6.12305505,10.0645592 C6.21968802,10.078266 6.3204725,10.0900762 6.42116865,10.0959382 L7.98823041,10.1962821 L8.50381236,8.75138209 C9.08387519,7.12777688 10.6388357,6.03864933 12.374961,6.03864933 C12.5764417,6.03864933 12.7979732,6.0622698 13.0960868,6.11339 L14.5402816,6.36700827 L15.2592874,5.11874431 C16.3630586,3.20410739 18.417525,2.01282564 20.6250673,2.01282564 C24.0127861,2.01282564 26.7722139,4.68236916 26.8125807,7.97690672 C26.7964163,8.09880211 26.7843151,8.2206975 26.780252,8.34647216 L26.7280489,9.82473393 L28.1620858,10.3122293 C29.8217173,10.8763618 30.9375897,12.3958301 30.9375897,14.0902967 C30.9375897,16.3115686 29.0884904,18.1162066 26.8125807,18.1162066 L21.5133133,18.1162066 C20.9437618,18.1162066 20.4821494,18.5667196 20.4821494,19.1225763 C20.4821494,19.6785193 20.9437618,20.1290323 21.5133133,20.1290323 L26.7215125,20.1290323 C30.1282223,20.1290323 32.9640555,17.4792299 32.9996525,14.1546065 C33.0283597,11.488425 31.2754518,9.23767056 28.8387816,8.40931639" id="Fill-3"></path>
            </g>
        </g>
    </g>
</svg>