<?xml version="1.0" encoding="UTF-8"?>
<svg width="36px" height="28px" viewBox="0 0 36 28" version="1.1" xmlns="http://www.w3.org/2000/svg" xmlns:xlink="http://www.w3.org/1999/xlink">
    <!-- Generator: sketchtool 49.3 (51167) - http://www.bohemiancoding.com/sketch -->
    <title>6D3BB0CC-A65A-4D90-9A31-B69415CCB4EE</title>
    <desc>Created with sketchtool.</desc>
    <defs></defs>
    <g id="Desk" stroke="none" stroke-width="1" fill="none" fill-rule="evenodd">
        <g id="123---Assets" transform="translate(-488.000000, -1542.000000)" fill="#3ABBE8">
            <g id="Docs" transform="translate(488.000000, 1542.000000)">
                <path d="M34.2557697,26.173863 L16.8139977,26.173863 L16.8139977,1.82605762 L27.2790761,1.82605762 L27.2790761,8.21737836 C27.2790761,8.72157823 27.6695301,9.13044686 28.1511154,9.13044686 L34.2557697,9.13044686 L34.2557697,26.173863 Z M29.0232305,3.11727602 L31.0228102,5.21075326 L33.0224656,7.30430986 L29.0232305,7.30430986 L29.0232305,3.11727602 Z M35.744499,7.57180885 L28.7677295,0.267498987 C28.6116996,0.103903909 28.3907708,0 28.1511154,0 L15.9418826,0 C15.4602973,0 15.0697674,0.408789252 15.0697674,0.913068499 L15.0697674,27.0869315 C15.0697674,27.5911314 15.4602215,28 15.9418826,28 L35.1278849,28 C35.6093943,28 36,27.5911314 36,27.0869315 L36,8.21737836 C36,7.98544007 35.9122047,7.74731041 35.744499,7.57180885 Z" id="Fill-1"></path>
                <path d="M31.7616086,13.5757576 L19.3081589,13.5757576 C18.8169437,13.5757576 18.4186047,13.9556321 18.4186047,14.4242424 C18.4186047,14.892779 18.8168663,15.2727273 19.3081589,15.2727273 L31.7616086,15.2727273 C32.2529011,15.2727273 32.6511628,14.892779 32.6511628,14.4242424 C32.6511628,13.9556321 32.2529011,13.5757576 31.7616086,13.5757576" id="Fill-3"></path>
                <path d="M31.7616086,16.969697 L19.3081589,16.969697 C18.8169437,16.969697 18.4186047,17.3494978 18.4186047,17.8181818 C18.4186047,18.2867184 18.8168663,18.6666667 19.3081589,18.6666667 L31.7616086,18.6666667 C32.2529011,18.6666667 32.6511628,18.2867184 32.6511628,17.8181818 C32.6511628,17.3494978 32.2529011,16.969697 31.7616086,16.969697" id="Fill-5"></path>
                <path d="M26.7070328,20.3636364 L19.3395589,20.3636364 C18.8310045,20.3636364 18.4186047,20.7434372 18.4186047,21.2121212 C18.4186047,21.6806577 18.8309244,22.0606061 19.3395589,22.0606061 L26.7069527,22.0606061 C27.2155872,22.0606061 27.627907,21.6806577 27.627907,21.2121212 C27.627907,20.7434372 27.2156673,20.3636364 26.7070328,20.3636364" id="Fill-7"></path>
                <path d="M8.93238514,0.29141904 C8.56312112,-0.0971396801 7.96442348,-0.0971396801 7.59507726,0.29141904 L3.67152379,4.4199852 L1.61426617,2.25523218 C1.24491995,1.86667346 0.646222303,1.86667346 0.276958288,2.25523218 C-0.0923057273,2.6437909 -0.0923057273,3.27385807 0.276876083,3.66233029 L2.971221,6.49745955 C3.16390908,6.70021592 3.41907281,6.7961446 3.67152379,6.78732158 C3.92397477,6.7961446 4.17913851,6.70021592 4.37174438,6.49745955 L8.93238514,1.69860365 C9.30156695,1.31004493 9.30164916,0.679977761 8.93238514,0.29141904" id="Fill-9"></path>
            </g>
        </g>
    </g>
</svg>