<?xml version="1.0" encoding="UTF-8"?>
<svg width="26px" height="17px" viewBox="0 0 26 17" version="1.1" xmlns="http://www.w3.org/2000/svg" xmlns:xlink="http://www.w3.org/1999/xlink">
    <!-- Generator: sketchtool 49.3 (51167) - http://www.bohemiancoding.com/sketch -->
    <title>BBD050BD-5D23-4BCB-960D-8B14EAAF2739</title>
    <desc>Created with sketchtool.</desc>
    <defs></defs>
    <g id="Desk" stroke="none" stroke-width="1" fill="none" fill-rule="evenodd">
        <g id="123---Assets" transform="translate(-1143.000000, -513.000000)" fill="#FFFFFF">
            <path d="M1147.25704,513 L1154.23459,523.938501 L1154.23459,514.778735 C1154.23459,514.284118 1154.41017,513.861197 1154.74889,513.517403 C1155.08704,513.172898 1155.50337,513 1155.98945,513 L1161.34562,513 C1163.91153,513 1165.8559,513.681534 1167.10371,515.072284 C1168.37913,516.507893 1169,518.667316 1169,521.492963 C1169,523.012952 1168.79542,524.390929 1168.32309,525.596008 C1167.8226,526.857963 1167.11026,527.805008 1166.27223,528.465803 C1165.56056,529.02415 1164.78507,529.4189 1163.98128,529.648096 C1162.74866,530.007332 1161.1693,529.999989 1159.87287,529.999989 L1159.87287,528.550316 C1159.87287,527.676302 1160.54183,526.958497 1161.39494,526.907585 C1162.51512,526.836556 1163.59321,526.571847 1164.41801,525.646208 C1165.12317,524.850076 1165.48949,523.472723 1165.48949,521.492963 C1165.48949,519.58481 1165.13767,518.186094 1164.46732,517.297394 C1163.81225,516.42209 1162.76967,515.962319 1161.34562,515.962319 L1157.74436,515.962319 L1157.74436,529.999989 L1154.23459,529.999989 L1146.50911,518.32281 L1146.50911,529.999989 L1143,530 L1143,514.778735 C1143,514.284118 1143.16969,513.861197 1143.51434,513.517403 C1143.8531,513.172898 1144.26882,513 1144.75486,513 L1147.25704,513 Z" id="Fill-1"></path>
        </g>
    </g>
</svg>