<?xml version="1.0" encoding="UTF-8"?>
<svg width="138px" height="138px" viewBox="0 0 138 138" version="1.1" xmlns="http://www.w3.org/2000/svg" xmlns:xlink="http://www.w3.org/1999/xlink">
    <!-- Generator: sketchtool 49.3 (51167) - http://www.bohemiancoding.com/sketch -->
    <title>CF4E1863-D1F0-4F36-8F11-A8E51313F38F</title>
    <desc>Created with sketchtool.</desc>
    <defs></defs>
    <g id="Desk" stroke="none" stroke-width="1" fill="none" fill-rule="evenodd">
        <g id="123---Assets" transform="translate(-684.000000, -1630.000000)">
            <g id="icon-2" transform="translate(685.000000, 1631.000000)">
                <circle id="Oval-Copy" stroke="#2290D8" cx="68" cy="68" r="68"></circle>
                <g id="praticidade" transform="translate(43.000000, 24.000000)" fill="#2290D8">
                    <path d="M5.6875,1.6382 C3.1705,1.6382 1.1225,3.6862 1.1225,6.2032 L1.1225,9.5672 L47.5915,9.5672 L47.5915,6.2032 C47.5915,3.6862 45.5435,1.6382 43.0255,1.6382 L5.6875,1.6382 Z M1.1225,68.8592 L47.5915,68.8592 L47.5915,10.5312 L1.1225,10.5312 L1.1225,68.8592 Z M1.1225,82.0822 C1.1225,84.5992 3.1705,86.6472 5.6875,86.6472 L43.0265,86.6472 C45.5435,86.6472 47.5915,84.5992 47.5915,82.0822 L47.5915,69.8242 L1.1225,69.8242 L1.1225,82.0822 Z M5.6875,87.6112 C2.6385,87.6112 0.1585,85.1302 0.1585,82.0802 L0.1585,6.2032 C0.1585,3.1542 2.6385,0.6732 5.6875,0.6732 L43.0265,0.6732 C46.0755,0.6732 48.5565,3.1542 48.5565,6.2032 L48.5565,82.0822 C48.5565,85.1312 46.0755,87.6112 43.0255,87.6112 L5.6875,87.6112 Z" id="Fill-1"></path>
                    <path d="M24.3574,74.2705 C22.1714,74.2705 20.3924,76.0495 20.3924,78.2355 C20.3924,80.4215 22.1714,82.1995 24.3574,82.1995 C26.5434,82.1995 28.3214,80.4215 28.3214,78.2355 C28.3214,76.0495 26.5434,74.2705 24.3574,74.2705 M24.3574,83.1645 C21.6394,83.1645 19.4284,80.9535 19.4284,78.2355 C19.4284,75.5175 21.6394,73.3065 24.3574,73.3065 C27.0754,73.3065 29.2864,75.5175 29.2864,78.2355 C29.2864,80.9535 27.0754,83.1645 24.3574,83.1645" id="Fill-3"></path>
                    <path d="M18.4282,6.085 C18.1622,6.085 17.9462,5.869 17.9462,5.603 C17.9462,5.337 18.1622,5.121 18.4282,5.121 L24.3572,5.121 C24.6232,5.121 24.8392,5.337 24.8392,5.603 C24.8392,5.869 24.6232,6.085 24.3572,6.085 L18.4282,6.085 Z" id="Fill-5"></path>
                    <path d="M28.8042,6.085 C28.5382,6.085 28.3222,5.869 28.3222,5.603 C28.3222,5.337 28.5382,5.121 28.8042,5.121 L30.2862,5.121 C30.5522,5.121 30.7682,5.337 30.7682,5.603 C30.7682,5.869 30.5522,6.085 30.2862,6.085 L28.8042,6.085 Z" id="Fill-7"></path>
                    <path d="M12.499,17.9434 C9.496,17.9434 7.052,20.3864 7.052,23.3904 L7.052,34.0844 L12.299,28.8374 L36.216,28.8374 C39.219,28.8374 41.663,26.3934 41.663,23.3904 C41.663,20.3864 39.219,17.9434 36.216,17.9434 L12.499,17.9434 Z M6.087,23.3904 C6.087,19.8554 8.964,16.9794 12.499,16.9794 L36.216,16.9794 C39.751,16.9794 42.627,19.8554 42.627,23.3904 C42.627,26.9254 39.751,29.8014 36.216,29.8014 L12.698,29.8014 L6.087,36.4124 L6.087,23.3904 Z" id="Fill-9"></path>
                    <path d="M41.6626,59.2837 L41.6626,48.5897 C41.6626,45.5857 39.2196,43.1427 36.2156,43.1427 L12.4986,43.1427 C9.4956,43.1427 7.0516,45.5857 7.0516,48.5897 C7.0516,51.5927 9.4956,54.0357 12.4986,54.0357 L36.4146,54.0357 L41.6626,59.2837 Z M36.0166,55.0007 L12.4986,55.0007 C8.9636,55.0007 6.0876,52.1247 6.0876,48.5897 C6.0876,45.0547 8.9636,42.1777 12.4986,42.1777 L36.2156,42.1777 C39.7506,42.1777 42.6266,45.0547 42.6266,48.5897 L42.6266,61.6117 L36.0166,55.0007 Z" id="Fill-11"></path>
                </g>
            </g>
        </g>
    </g>
</svg>