<?xml version="1.0" encoding="UTF-8"?>
<svg width="138px" height="138px" viewBox="0 0 138 138" version="1.1" xmlns="http://www.w3.org/2000/svg" xmlns:xlink="http://www.w3.org/1999/xlink">
    <!-- Generator: sketchtool 49.3 (51167) - http://www.bohemiancoding.com/sketch -->
    <title>B28ECC6A-0A14-4CDC-B34C-5F0327E997CF</title>
    <desc>Created with sketchtool.</desc>
    <defs></defs>
    <g id="Desk" stroke="none" stroke-width="1" fill="none" fill-rule="evenodd">
        <g id="123---Assets" transform="translate(-487.000000, -1630.000000)">
            <g id="icon-1" transform="translate(488.000000, 1631.000000)">
                <circle id="Oval" stroke="#2290D8" cx="68" cy="68" r="68"></circle>
                <g id="agilidade" transform="translate(27.000000, 24.000000)" fill="#2290D8">
                    <path d="M23.5581,87.9771 C23.2801,87.9771 23.0781,87.7671 23.0781,87.4781 C23.0781,87.1891 23.2801,86.9791 23.5581,86.9791 L40.1841,86.9791 L40.1841,79.1721 C40.1841,78.8831 40.3861,78.6731 40.6641,78.6731 C40.9431,78.6731 41.1451,78.8831 41.1451,79.1721 L41.1451,86.9791 L57.7711,86.9791 C58.0511,86.9791 58.2661,87.2051 58.2711,87.5041 C58.2711,87.7661 58.0641,87.9771 57.7901,87.9771 L23.5581,87.9771 Z" id="Fill-1"></path>
                    <path d="M47.728,16.6729 C47.568,16.6729 47.409,16.6819 47.25,16.6969 C45.994,16.8289 44.873,17.4419 44.085,18.4229 C43.3,19.3999 42.937,20.6299 43.065,21.8859 C43.192,23.1429 43.796,24.2739 44.764,25.0699 C45.608,25.7649 46.631,26.1319 47.72,26.1319 C49.142,26.1319 50.47,25.4939 51.363,24.3829 C52.149,23.4039 52.511,22.1729 52.382,20.9179 C52.254,19.6619 51.651,18.5309 50.684,17.7349 C49.839,17.0399 48.817,16.6729 47.728,16.6729 M47.718,27.1309 C46.428,27.1309 45.166,26.6779 44.165,25.8539 C41.741,23.8589 41.373,20.2369 43.345,17.7819 C44.421,16.4419 46.02,15.6729 47.73,15.6729 C49.02,15.6729 50.281,16.1279 51.283,16.9509 C52.454,17.9159 53.185,19.2879 53.341,20.8139 C53.496,22.3409 53.057,23.8359 52.103,25.0229 C51.153,26.2069 49.803,26.9439 48.301,27.1009 C48.11,27.1209 47.913,27.1309 47.718,27.1309" id="Fill-3"></path>
                    <path d="M61.9624,1.6982 C59.4194,1.8082 56.9054,2.2902 54.4894,3.1322 L53.0724,3.6262 L53.6004,5.0352 C54.2664,6.8102 55.3904,8.3852 56.8514,9.5872 C58.3164,10.7922 60.0704,11.5862 61.9254,11.8842 L63.4174,12.1222 L63.6064,10.6172 C63.9264,8.0532 63.8804,5.4672 63.4684,2.9282 L63.2594,1.6422 L61.9624,1.6982 Z M26.2654,21.8522 L18.5264,31.4882 L24.9154,32.0102 L34.6824,19.8482 L26.2654,21.8522 Z M50.7124,4.7932 C47.6134,6.4622 44.8154,8.7892 42.6194,11.5252 L25.8114,32.4542 L41.0944,45.0342 L57.9164,24.0852 C60.1124,21.3502 61.7924,18.1032 62.7714,14.6962 L63.2244,13.1242 L61.6184,12.8442 C59.6564,12.5002 57.8014,11.6452 56.2544,10.3712 C54.7044,9.0962 53.4974,7.4292 52.7644,5.5512 L52.1614,4.0122 L50.7124,4.7932 Z M24.8534,37.6322 L36.2904,47.0442 L37.7274,43.5392 L27.9504,35.4912 L24.8534,37.6322 Z M41.6984,45.8432 L43.5064,52.0682 L51.2654,42.4072 L51.4854,33.6562 L41.6984,45.8432 Z M43.2174,53.5942 C43.0324,53.5562 42.8944,53.4272 42.8424,53.2462 L40.7454,46.0232 L38.5094,44.1832 L36.9284,48.0402 C36.8704,48.1822 36.7444,48.2932 36.5994,48.3302 L36.4844,48.3442 C36.3774,48.3442 36.2714,48.3062 36.1874,48.2372 L23.7364,37.9882 C23.6174,37.8902 23.5474,37.7322 23.5544,37.5752 C23.5614,37.4182 23.6434,37.2662 23.7694,37.1792 L27.1574,34.8372 L24.9414,33.0152 L17.5234,32.4092 C17.3454,32.3952 17.1904,32.2812 17.1194,32.1112 C17.0454,31.9362 17.0724,31.7372 17.1904,31.5902 L25.6294,21.0822 C25.6954,20.9992 25.7914,20.9382 25.8924,20.9142 L35.7004,18.5792 L41.8794,10.8842 C44.4864,7.6382 47.8454,4.9932 51.5924,3.2362 C55.1664,1.5592 59.1404,0.6732 63.0864,0.6732 C63.2674,0.6732 63.4484,0.6762 63.6294,0.6792 C63.8494,0.6842 64.0384,0.8432 64.0884,1.0652 C65.0144,5.1442 65.0084,9.4552 64.0724,13.5322 C63.1364,17.6082 61.2644,21.4792 58.6564,24.7252 L52.4814,32.4162 L52.2244,42.6072 C52.2214,42.7172 52.1804,42.8292 52.1134,42.9132 L43.6734,53.4222 C43.5904,53.5252 43.4794,53.5862 43.3514,53.5992 L43.3034,53.6022 C43.2734,53.6022 43.2444,53.5992 43.2174,53.5942 Z" id="Fill-5"></path>
                    <path d="M16.0244,51.6309 C15.9384,51.6269 15.8344,51.5839 15.7524,51.5099 C15.6504,51.4189 15.5934,51.2989 15.5854,51.1609 C15.5774,51.0239 15.6214,50.8969 15.7114,50.7939 L23.0434,42.3259 C23.1214,42.2369 23.2524,42.1779 23.3854,42.1779 C23.5144,42.1829 23.6194,42.2269 23.7014,42.3009 C23.8014,42.3909 23.8584,42.5099 23.8664,42.6469 C23.8744,42.7869 23.8314,42.9129 23.7414,43.0159 L16.4094,51.4839 C16.3364,51.5679 16.2204,51.6239 16.0934,51.6309 L16.0894,51.6319 L16.0244,51.6309 Z" id="Fill-7"></path>
                    <path d="M20.2129,60.8931 C20.1269,60.8891 20.0229,60.8461 19.9409,60.7721 C19.8389,60.6811 19.7819,60.5611 19.7739,60.4231 C19.7659,60.2861 19.8099,60.1591 19.8999,60.0561 L30.2259,48.1811 C30.3039,48.0921 30.4349,48.0331 30.5669,48.0331 C30.6959,48.0391 30.8009,48.0821 30.8839,48.1561 C30.9839,48.2461 31.0409,48.3661 31.0479,48.5021 C31.0569,48.6421 31.0139,48.7681 30.9239,48.8711 L20.5979,60.7461 C20.5249,60.8301 20.4089,60.8861 20.2819,60.8931 L20.2779,60.8941 L20.2129,60.8931 Z" id="Fill-9"></path>
                    <path d="M14.3198,60.8931 C14.2338,60.8891 14.1298,60.8461 14.0478,60.7721 C13.9458,60.6811 13.8888,60.5611 13.8808,60.4231 C13.8728,60.2861 13.9168,60.1591 14.0068,60.0561 L26.6338,45.2531 C26.7128,45.1641 26.8428,45.1051 26.9758,45.1051 C27.1048,45.1111 27.2098,45.1541 27.2928,45.2281 C27.3928,45.3181 27.4488,45.4381 27.4568,45.5751 C27.4658,45.7141 27.4228,45.8411 27.3328,45.9431 L14.7048,60.7461 C14.6318,60.8301 14.5158,60.8861 14.3888,60.8931 L14.3848,60.8941 L14.3198,60.8931 Z" id="Fill-11"></path>
                    <path d="M3.0688,73.0322 C1.4198,73.0322 0.0778,71.6682 0.0778,69.9912 L0.0778,17.7142 C0.0778,16.0372 1.4198,14.6732 3.0688,14.6732 L20.4428,14.6732 C20.7208,14.6732 20.9228,14.8832 20.9228,15.1722 C20.9228,15.4612 20.7208,15.6702 20.4428,15.6702 L3.0688,15.6702 C1.9488,15.6702 1.0378,16.5872 1.0378,17.7142 L1.0378,70.0112 C1.0378,71.1372 1.9488,72.0542 3.0688,72.0542 L78.0868,72.0542 C79.2068,72.0542 80.1168,71.1372 80.1168,70.0112 L80.1168,17.7142 C80.1168,16.5872 79.2068,15.6702 78.0868,15.6702 L73.7238,15.6702 C73.4448,15.6702 73.2428,15.4612 73.2428,15.1722 C73.2428,14.8832 73.4448,14.6732 73.7238,14.6732 L78.0868,14.6732 C79.7358,14.6732 81.0778,16.0372 81.0778,17.7142 L81.0778,69.9912 C81.0778,71.6682 79.7358,73.0322 78.0868,73.0322 L3.0688,73.0322 Z" id="Fill-13"></path>
                </g>
            </g>
        </g>
    </g>
</svg>