<?xml version="1.0" encoding="UTF-8"?>
<svg width="138px" height="138px" viewBox="0 0 138 138" version="1.1" xmlns="http://www.w3.org/2000/svg" xmlns:xlink="http://www.w3.org/1999/xlink">
    <!-- Generator: sketchtool 49.3 (51167) - http://www.bohemiancoding.com/sketch -->
    <title>82D63F46-40D4-4DC7-87B7-8C37FAC6AF8E</title>
    <desc>Created with sketchtool.</desc>
    <defs></defs>
    <g id="Desk" stroke="none" stroke-width="1" fill="none" fill-rule="evenodd">
        <g id="123---Assets" transform="translate(-886.000000, -1630.000000)">
            <g id="icon-3" transform="translate(887.000000, 1631.000000)">
                <circle id="Oval-Copy-2" stroke="#2290D8" cx="68" cy="68" r="68"></circle>
                <g id="segurança" transform="translate(32.000000, 28.000000)" fill="#2290D8">
                    <path d="M35.666,1.8384 C25.127,7.9634 14.37,12.5404 2.78,15.8304 L1.8,16.1094 L1.8,34.3124 C1.8,52.6354 10.246,64.7574 17.332,71.6994 C25.553,79.7554 34.263,83.1664 36.344,83.1664 C38.424,83.1664 47.134,79.7554 55.355,71.6994 C62.44,64.7564 70.886,52.6344 70.886,34.3124 L70.886,16.1094 L69.908,15.8304 C58.629,12.6154 47.257,7.7774 37.02,1.8384 L36.343,1.4454 L35.666,1.8384 Z M36.344,84.1044 C33.583,84.1044 24.651,80.1824 16.676,72.3684 C9.462,65.3004 0.863,52.9614 0.863,34.3124 L0.863,15.7484 C0.863,15.5384 1.005,15.3524 1.208,15.2964 C13.546,11.9164 24.961,7.0754 36.105,0.4964 C36.177,0.4534 36.259,0.4304 36.344,0.4304 C36.428,0.4304 36.51,0.4534 36.582,0.4964 C47.415,6.8914 59.481,12.0094 71.479,15.2964 C71.682,15.3524 71.824,15.5384 71.824,15.7484 L71.824,34.3124 C71.824,52.9614 63.225,65.3014 56.012,72.3684 C48.037,80.1824 39.104,84.1044 36.344,84.1044 Z" id="Fill-1"></path>
                    <path d="M8.5254,28.6172 C8.2674,28.6172 8.0564,28.4072 8.0564,28.1482 L8.0564,21.1322 C8.0564,20.9272 8.1894,20.7472 8.3854,20.6852 C11.7394,19.6342 15.1014,18.4462 18.3774,17.1552 C18.4324,17.1332 18.4904,17.1212 18.5494,17.1212 C18.7434,17.1212 18.9144,17.2382 18.9854,17.4192 C19.0794,17.6592 18.9614,17.9312 18.7214,18.0262 C15.8424,19.1602 12.8834,20.2212 9.9274,21.1772 L8.9934,21.4792 L8.9934,28.1482 C8.9934,28.4072 8.7834,28.6172 8.5254,28.6172" id="Fill-3"></path>
                    <path d="M23.6904,15.9209 C23.5024,15.9209 23.3324,15.8109 23.2574,15.6399 C23.2084,15.5259 23.2054,15.3999 23.2514,15.2829 C23.2964,15.1669 23.3834,15.0759 23.4964,15.0259 C23.6044,14.9789 23.6684,14.9719 23.7164,14.9719 C23.9044,14.9719 24.0734,15.0819 24.1484,15.2519 C24.1984,15.3669 24.2014,15.4959 24.1564,15.6119 C24.1124,15.7269 24.0254,15.8169 23.9124,15.8669 C23.8034,15.9139 23.7414,15.9209 23.6904,15.9209" id="Fill-5"></path>
                    <path d="M46.145,71.2646 C45.997,71.2646 45.861,71.1976 45.772,71.0796 C45.696,70.9796 45.664,70.8576 45.68,70.7326 C45.697,70.6086 45.761,70.4986 45.86,70.4236 C47.757,68.9766 49.561,67.3716 51.223,65.6516 C53.25,63.5556 55.06,61.2946 56.604,58.9306 C56.69,58.7976 56.838,58.7186 56.998,58.7186 C57.088,58.7186 57.177,58.7446 57.252,58.7946 C57.357,58.8636 57.429,58.9686 57.455,59.0906 C57.48,59.2126 57.457,59.3376 57.388,59.4426 C55.813,61.8556 53.965,64.1636 51.897,66.3036 C50.199,68.0586 48.359,69.6956 46.428,71.1686 C46.324,71.2476 46.217,71.2646 46.145,71.2646" id="Fill-7"></path>
                    <path d="M41.6304,74.3027 C41.4604,74.3027 41.3084,74.2157 41.2244,74.0687 C41.1614,73.9597 41.1444,73.8337 41.1764,73.7127 C41.2084,73.5927 41.2864,73.4907 41.3944,73.4287 L41.5064,73.3627 C41.5774,73.3217 41.6554,73.2997 41.7394,73.2997 C41.9114,73.2997 42.0594,73.3847 42.1464,73.5317 C42.2094,73.6387 42.2264,73.7647 42.1944,73.8857 C42.1624,74.0077 42.0864,74.1087 41.9784,74.1717 L41.8564,74.2427 C41.7914,74.2817 41.7104,74.3027 41.6304,74.3027" id="Fill-9"></path>
                    <path d="M19.7822,39.1147 C18.8142,39.1147 17.9052,39.4907 17.2202,40.1747 C15.8072,41.5877 15.8072,43.8857 17.2202,45.2987 L27.9482,56.0257 C28.6322,56.7097 29.5412,57.0867 30.5102,57.0867 C31.4772,57.0867 32.3872,56.7097 33.0722,56.0267 L55.4672,33.6307 C56.8792,32.2177 56.8792,29.9197 55.4672,28.5077 C54.7832,27.8237 53.8732,27.4477 52.9052,27.4477 C51.9362,27.4477 51.0272,27.8237 50.3432,28.5087 L30.8412,48.0107 C30.7532,48.0987 30.6352,48.1477 30.5102,48.1477 C30.3842,48.1477 30.2662,48.0987 30.1782,48.0107 L22.3432,40.1757 C21.6612,39.4907 20.7512,39.1147 19.7822,39.1147 M30.5102,58.0237 C29.2922,58.0237 28.1472,57.5497 27.2852,56.6887 L16.5572,45.9617 C14.7802,44.1827 14.7802,41.2907 16.5582,39.5117 C17.4192,38.6517 18.5642,38.1777 19.7822,38.1777 C21.0002,38.1777 22.1452,38.6517 23.0062,39.5127 L30.5102,47.0167 L49.6802,27.8447 C50.5422,26.9847 51.6872,26.5107 52.9052,26.5107 C54.1232,26.5107 55.2682,26.9847 56.1302,27.8447 C57.9072,29.6227 57.9072,32.5147 56.1292,34.2927 L33.7342,56.6887 C32.8732,57.5497 31.7282,58.0237 30.5102,58.0237" id="Fill-11"></path>
                </g>
            </g>
        </g>
    </g>
</svg>