<?xml version="1.0" encoding="UTF-8"?>
<svg width="138px" height="138px" viewBox="0 0 138 138" version="1.1" xmlns="http://www.w3.org/2000/svg" xmlns:xlink="http://www.w3.org/1999/xlink">
    <!-- Generator: sketchtool 49.3 (51167) - http://www.bohemiancoding.com/sketch -->
    <title>3BC0FBD8-1483-4A6A-9CB2-E4302987A7DF</title>
    <desc>Created with sketchtool.</desc>
    <defs></defs>
    <g id="Desk" stroke="none" stroke-width="1" fill="none" fill-rule="evenodd">
        <g id="123---Assets" transform="translate(-1091.000000, -1630.000000)">
            <g id="icon-4" transform="translate(1092.000000, 1631.000000)">
                <circle id="Oval" stroke="#2290D8" cx="68" cy="68" r="68"></circle>
                <g id="confiança" transform="translate(27.000000, 27.000000)" fill="#2290D8">
                    <path d="M1.101,84.1607 L11.608,84.1607 L11.608,56.2407 L1.101,56.2407 L1.101,84.1607 Z M12.71,84.1607 L49.16,84.1607 C50.027,84.1607 50.859,83.7907 51.441,83.1477 C52.024,82.5037 52.309,81.6377 52.222,80.7697 C52.065,79.2197 50.666,78.0057 49.036,78.0057 L40.629,78.0057 L40.629,76.9057 L49.16,76.9057 C50.027,76.9057 50.859,76.5357 51.441,75.8927 C52.024,75.2487 52.309,74.3827 52.222,73.5147 C52.065,71.9647 50.666,70.7507 49.036,70.7507 L40.629,70.7507 L40.629,69.6497 L49.036,69.6497 C50.666,69.6497 52.065,68.4367 52.222,66.8877 C52.309,66.0187 52.024,65.1517 51.441,64.5087 C50.859,63.8657 50.027,63.4957 49.16,63.4957 L40.629,63.4957 L40.629,62.3947 L49.16,62.3947 C50.027,62.3947 50.859,62.0257 51.441,61.3817 C52.024,60.7387 52.309,59.8717 52.222,59.0037 C52.065,57.4537 50.666,56.2407 49.036,56.2407 L35.376,56.2407 C35.012,56.1977 34.799,55.9197 34.838,55.6187 L36.766,41.1587 C37.744,30.1217 31.84,32.2197 31.84,32.2197 C31.659,33.4357 31.37,34.6447 30.981,35.8127 L25.613,51.8967 C24.749,54.4947 22.33,56.2407 19.593,56.2407 L12.71,56.2407 L12.71,84.1607 Z M0.551,85.2617 C0.247,85.2617 0,85.0147 0,84.7107 L0,55.6907 C0,55.3867 0.247,55.1397 0.551,55.1397 L19.584,55.1397 C21.849,55.1397 23.851,53.6967 24.567,51.5477 L29.923,35.4657 C30.29,34.3607 30.794,32.4567 30.967,31.3007 C30.967,31.3007 39.184,28.2807 37.85,41.3007 L36.005,55.1397 L49.16,55.1397 C50.287,55.1397 51.376,55.5997 52.157,56.4017 C52.934,57.2007 53.353,58.2527 53.338,59.3677 C53.323,60.4817 52.875,61.5237 52.076,62.3007 L51.414,62.9457 L52.168,63.6817 C53.761,65.3247 53.721,67.9597 52.077,69.5547 L51.422,70.1907 L52.176,70.9457 C53.761,72.5787 53.721,75.2147 52.077,76.8097 L51.413,77.4537 L52.076,78.0997 C52.88,78.8827 53.34,79.9747 53.338,81.0967 C53.336,83.3937 51.464,85.2617 49.166,85.2617 L0.551,85.2617 Z" id="Fill-1"></path>
                    <path d="M13.6103,6.9063 C9.9143,6.9063 6.9063,9.9133 6.9063,13.6103 C6.9063,17.3073 9.9143,20.3143 13.6103,20.3143 C17.3063,20.3143 20.3143,17.3073 20.3143,13.6103 C20.3143,9.9133 17.3063,6.9063 13.6103,6.9063 M13.6113,21.4163 C9.3103,21.4123 5.8083,17.9093 5.8043,13.6093 C5.8043,9.3063 9.3053,5.8043 13.6103,5.8043 C17.9153,5.8043 21.4163,9.3063 21.4163,13.6103 C21.4163,17.9143 17.9153,21.4163 13.6113,21.4163" id="Fill-3"></path>
                    <path d="M13.6093,1.1021 C6.7203,1.1101 1.1103,6.7211 1.1013,13.6091 C1.1013,20.5071 6.7133,26.1191 13.6103,26.1191 C20.5073,26.1191 26.1193,20.5071 26.1193,13.6101 C26.1193,6.7131 20.5073,1.1021 13.6103,1.1021 L13.6093,1.1021 Z M13.6113,27.2201 C6.1153,27.2121 0.0083,21.1061 0.0003,13.6091 C0.0003,6.1051 6.1053,0.0001 13.6103,0.0001 C21.1153,0.0001 27.2193,6.1051 27.2193,13.6101 C27.2193,21.1141 21.1153,27.2201 13.6113,27.2201 Z" id="Fill-4"></path>
                    <path d="M64.3964,14.1617 C60.6994,14.1617 57.6914,17.1687 57.6914,20.8657 C57.6914,24.5627 60.6994,27.5707 64.3964,27.5707 C68.0924,27.5707 71.1004,24.5627 71.1004,20.8657 C71.1004,17.1687 68.0924,14.1617 64.3964,14.1617 M64.3954,28.6707 C60.0914,28.6707 56.5904,25.1687 56.5904,20.8657 C56.5904,16.5607 60.0914,13.0587 64.3964,13.0587 C68.7014,13.0587 72.2024,16.5607 72.2024,20.8657 C72.1984,25.1647 68.6964,28.6667 64.3954,28.6707" id="Fill-5"></path>
                    <path d="M64.3964,8.3575 C57.4994,8.3575 51.8874,13.9685 51.8874,20.8655 C51.8954,27.7555 57.5054,33.3665 64.3954,33.3745 C71.2934,33.3745 76.9054,27.7625 76.9054,20.8655 C76.9054,13.9685 71.2934,8.3575 64.3964,8.3575 M64.3954,34.4755 C56.8914,34.4755 50.7864,28.3705 50.7864,20.8655 C50.7864,13.3605 56.8914,7.2545 64.3964,7.2545 C71.9014,7.2545 78.0054,13.3605 78.0054,20.8655 C77.9984,28.3615 71.8924,34.4675 64.3954,34.4755" id="Fill-6"></path>
                    <path d="M71.6513,57.6915 C67.9553,57.6915 64.9473,60.6995 64.9473,64.3965 C64.9473,68.0925 67.9553,71.1005 71.6513,71.1005 C75.3473,71.1005 78.3553,68.0925 78.3553,64.3965 C78.3553,60.6995 75.3473,57.6915 71.6513,57.6915 M71.6513,72.2025 C67.3463,72.2025 63.8453,68.7015 63.8453,64.3965 C63.8453,60.0915 67.3463,56.5905 71.6513,56.5905 C75.9513,56.5935 79.4533,60.0955 79.4573,64.3975 C79.4573,68.7015 75.9563,72.2025 71.6513,72.2025" id="Fill-7"></path>
                    <path d="M71.6513,51.8878 C64.7543,51.8878 59.1423,57.4988 59.1423,64.3968 C59.1423,71.2938 64.7543,76.9058 71.6513,76.9058 C78.5413,76.8968 84.1513,71.2858 84.1603,64.3978 C84.1603,57.4988 78.5483,51.8878 71.6513,51.8878 M71.6513,78.0058 C64.1463,78.0058 58.0423,71.9018 58.0423,64.3968 C58.0423,56.8918 64.1463,50.7858 71.6513,50.7858 C79.1473,50.7938 85.2543,56.9008 85.2613,64.3978 C85.2613,71.9018 79.1563,78.0058 71.6513,78.0058" id="Fill-8"></path>
                    <polygon id="Fill-9" points="2.9023 37.377 2.9023 34.476 0.0003 34.476 0.0003 33.374 2.9023 33.374 2.9023 30.472 4.0043 30.472 4.0043 33.374 6.9063 33.374 6.9063 34.476 4.0043 34.476 4.0043 37.377"></polygon>
                    <polygon id="Fill-10" points="81.2577 44.6329 81.2577 41.7309 78.3557 41.7309 78.3557 40.6289 81.2577 40.6289 81.2577 37.7279 82.3597 37.7279 82.3597 40.6289 85.2617 40.6289 85.2617 41.7309 82.3597 41.7309 82.3597 44.6329"></polygon>
                    <polygon id="Fill-13" points="40.8847 6.9063 40.8847 4.0043 37.9827 4.0043 37.9827 2.9023 40.8847 2.9023 40.8847 0.0003 41.9857 0.0003 41.9857 2.9023 44.8877 2.9023 44.8877 4.0043 41.9857 4.0043 41.9857 6.9063"></polygon>
                    <polygon id="Fill-16" points="81.2577 6.9063 81.2577 4.0043 78.3557 4.0043 78.3557 2.9023 81.2577 2.9023 81.2577 0.0003 82.3597 0.0003 82.3597 2.9023 85.2617 2.9023 85.2617 4.0043 82.3597 4.0043 82.3597 6.9063"></polygon>
                </g>
            </g>
        </g>
    </g>
</svg>