<?xml version="1.0" encoding="UTF-8"?>
<svg width="138px" height="138px" viewBox="0 0 138 138" version="1.1" xmlns="http://www.w3.org/2000/svg" xmlns:xlink="http://www.w3.org/1999/xlink">
    <!-- Generator: sketchtool 49.3 (51167) - http://www.bohemiancoding.com/sketch -->
    <title>5CCDF4A1-1A7F-42B3-A062-1F2D6B763C22</title>
    <desc>Created with sketchtool.</desc>
    <defs>
        <polygon id="path-1" points="0 88.2432 88.242 88.2432 88.242 0.0002 0 0.0002"></polygon>
    </defs>
    <g id="Desk" stroke="none" stroke-width="1" fill="none" fill-rule="evenodd">
        <g id="123---Assets" transform="translate(-1292.000000, -1630.000000)">
            <g id="icon-5" transform="translate(1293.000000, 1631.000000)">
                <circle id="Oval" stroke="#2290D8" cx="68" cy="68" r="68"></circle>
                <g id="experiência" transform="translate(23.000000, 21.000000)">
                    <path d="M57.6284,1.0137 C51.2354,1.0137 46.0344,6.2147 46.0344,12.6067 L46.0344,29.2087 C46.0344,35.5987 51.2354,40.8007 57.6284,40.8007 L65.7884,40.8007 C72.1804,40.8007 77.3814,35.5987 77.3814,29.2087 L77.3814,12.6067 C77.3814,6.2147 72.1804,1.0137 65.7884,1.0137 L57.6284,1.0137 Z M57.6284,41.8137 C50.6774,41.8137 45.0224,36.1597 45.0224,29.2087 L45.0224,12.6067 C45.0224,5.6557 50.6774,-0.0003 57.6284,-0.0003 L65.7884,-0.0003 C72.7394,-0.0003 78.3944,5.6557 78.3944,12.6067 L78.3944,29.2087 C78.3944,36.1597 72.7394,41.8137 65.7884,41.8137 L57.6284,41.8137 Z" id="Fill-6" fill="#2290D8"></path>
                    <path d="M34.2729,57.2906 C33.9269,57.2906 33.7659,57.1306 33.7659,56.7846 C33.7659,53.7786 36.0019,52.0566 39.9009,52.0566 L49.7499,52.0566 C52.6209,52.0566 54.8709,49.8066 54.8709,46.9356 L54.8709,45.5286 C54.8709,45.1836 55.0319,45.0226 55.3769,45.0226 C55.7229,45.0226 55.8829,45.1836 55.8829,45.5286 L55.8829,46.9356 C55.8829,50.3746 53.1889,53.0696 49.7499,53.0696 L39.9009,53.0696 C36.5509,53.0696 34.7799,54.3546 34.7799,56.7846 C34.7799,57.1306 34.6189,57.2906 34.2729,57.2906" id="Fill-9" fill="#2290D8"></path>
                    <path d="M87.7368,88.2437 C87.3908,88.2437 87.2298,88.0817 87.2298,87.7357 L87.2298,58.1907 C87.2298,55.3197 84.9798,53.0697 82.1088,53.0697 L72.2598,53.0697 C68.8198,53.0697 66.1258,50.3747 66.1258,46.9347 L66.1258,45.5287 C66.1258,45.1827 66.2868,45.0227 66.6328,45.0227 C66.9778,45.0227 67.1388,45.1827 67.1388,45.5287 L67.1388,46.9347 C67.1388,49.8057 69.3888,52.0557 72.2598,52.0557 L82.1088,52.0557 C85.5488,52.0557 88.2428,54.7517 88.2428,58.1907 L88.2428,87.7357 C88.2428,88.0817 88.0828,88.2437 87.7368,88.2437" id="Fill-11" fill="#2290D8"></path>
                    <path d="M24.4243,71.2183 C22.3763,71.2183 20.7103,72.8863 20.7103,74.9333 C20.7103,76.9823 22.3763,78.6483 24.4243,78.6483 C26.4723,78.6483 28.1393,76.9823 28.1393,74.9333 C28.1393,72.8863 26.4723,71.2183 24.4243,71.2183 M24.4243,79.6613 C21.8183,79.6613 19.6973,77.5403 19.6973,74.9333 C19.6973,72.3253 21.8183,70.2063 24.4243,70.2063 C27.0313,70.2063 29.1523,72.3253 29.1523,74.9333 C29.1523,77.5403 27.0313,79.6613 24.4243,79.6613" id="Fill-14" fill="#2290D8"></path>
                    <path d="M53.8296,20.711 C53.2396,20.711 52.7606,20.231 52.7606,19.641 C52.7606,19.051 53.2396,18.571 53.8296,18.571 C54.4196,18.571 54.8986,19.051 54.8986,19.641 C54.8986,20.231 54.4196,20.711 53.8296,20.711" id="Fill-16" fill="#2290D8"></path>
                    <path d="M69.5874,20.711 C68.9974,20.711 68.5184,20.231 68.5184,19.641 C68.5184,19.051 68.9974,18.571 69.5874,18.571 C70.1774,18.571 70.6564,19.051 70.6564,19.641 C70.6564,20.231 70.1774,20.711 69.5874,20.711" id="Fill-18" fill="#2290D8"></path>
                    <path d="M59.3169,35.2027 C57.7439,35.2027 56.2699,34.5977 55.1689,33.4957 L54.0449,32.3707 C53.9399,32.2667 53.8849,32.1457 53.8849,32.0207 C53.8849,31.8977 53.9399,31.7767 54.0439,31.6737 C54.1479,31.5697 54.2679,31.5147 54.3919,31.5147 C54.5169,31.5147 54.6369,31.5697 54.7419,31.6737 L55.8659,32.7987 C56.7489,33.6817 57.9549,34.1887 59.1749,34.1887 L62.6929,34.1887 C63.9129,34.1887 65.1199,33.6817 66.0029,32.8007 L67.1289,31.6737 C67.2319,31.5697 67.3519,31.5147 67.4759,31.5147 C67.6009,31.5147 67.7209,31.5697 67.8249,31.6737 C68.0369,31.8847 68.0369,32.1597 67.8249,32.3707 L66.6989,33.4957 C65.6929,34.6267 64.3689,35.2027 62.8339,35.2027 L59.3169,35.2027 Z" id="Fill-20" fill="#2290D8"></path>
                    <path d="M49.7495,12.2696 C49.4035,12.2696 49.2425,12.1086 49.2425,11.7626 C49.2425,11.4166 49.4035,11.2556 49.7495,11.2556 L59.4775,11.2556 L64.9245,7.1336 C65.0385,7.0596 65.1835,7.0216 65.2595,7.0216 L65.3065,7.0536 L65.3865,7.0806 C65.7065,7.2406 65.7315,7.3836 65.7315,7.5416 L65.7315,11.2556 L73.6675,11.2556 C74.0135,11.2556 74.1735,11.4166 74.1735,11.7626 C74.1735,12.1086 74.0135,12.2696 73.6675,12.2696 L65.2255,12.2696 C64.8795,12.2696 64.7195,12.1086 64.7195,11.7626 L64.7195,8.5556 L59.9675,12.1186 C59.8285,12.1866 59.6625,12.2656 59.5965,12.2696 L49.7495,12.2696 Z" id="Fill-22" fill="#2290D8"></path>
                    <path d="M53.9702,84.023 C53.8212,84.023 53.7602,84.003 53.6212,83.863 C53.4092,83.652 53.4092,83.378 53.6212,83.168 L56.4362,80.353 C56.5742,80.214 56.6342,80.195 56.7832,80.195 L78.7882,80.195 L78.7882,63.818 C78.7882,63.472 78.9492,63.312 79.2942,63.312 C79.6402,63.312 79.8012,63.472 79.8012,63.818 L79.8012,80.703 C79.8012,81.048 79.6402,81.209 79.2942,81.209 L56.9742,81.209 L54.3182,83.863 C54.1792,84.003 54.1192,84.023 53.9702,84.023" id="Fill-24" fill="#2290D8"></path>
                    <mask id="mask-2" fill="white">
                        <use xlink:href="#path-1"></use>
                    </mask>
                    <g id="Clip-27"></g>
                    <path d="M57.291,60.4972 L64.72,60.4972 L64.72,54.4762 L57.291,54.4762 L57.291,60.4972 Z M63.819,75.5812 C63.473,75.5812 63.312,75.4192 63.312,75.0742 L63.312,61.5112 L58.698,61.5112 L58.698,75.0742 C58.698,75.4192 58.537,75.5812 58.191,75.5812 C57.845,75.5812 57.684,75.4192 57.684,75.0742 L57.684,61.5112 L56.784,61.5112 C56.438,61.5112 56.278,61.3512 56.278,61.0052 L56.278,53.9702 C56.278,53.6242 56.438,53.4642 56.784,53.4642 L65.225,53.4642 C65.571,53.4642 65.732,53.6242 65.732,53.9702 L65.732,61.0052 C65.732,61.3512 65.571,61.5112 65.225,61.5112 L64.325,61.5112 L64.325,75.0742 C64.325,75.4192 64.165,75.5812 63.819,75.5812 Z" id="Fill-26" fill="#2290D8" mask="url(#mask-2)"></path>
                    <path d="M1.013,87.2302 L47.835,87.2302 L47.835,62.9182 L1.013,62.9182 L1.013,87.2302 Z M0.506,88.2432 C0.161,88.2432 0,88.0812 0,87.7362 L0,62.4112 C0,62.0662 0.161,61.9062 0.506,61.9062 L48.342,61.9062 C48.688,61.9062 48.849,62.0662 48.849,62.4112 L48.849,87.2302 L69.447,87.2302 C69.792,87.2302 69.953,87.3902 69.953,87.7362 C69.953,88.0812 69.792,88.2432 69.447,88.2432 L0.506,88.2432 Z" id="Fill-28" fill="#2290D8" mask="url(#mask-2)"></path>
                    <path d="M18.0093,15.5938 C11.5383,15.5938 6.2753,20.8578 6.2753,27.3288 C6.2753,31.5398 8.5513,35.4508 12.2163,37.5348 C12.3203,37.5938 12.3993,37.6878 12.4393,37.8008 L13.6963,41.3218 L22.3223,41.3218 L23.5793,37.8018 C23.6193,37.6878 23.6983,37.5938 23.8023,37.5348 C27.4673,35.4508 29.7433,31.5398 29.7433,27.3288 C29.7433,20.8578 24.4803,15.5938 18.0093,15.5938 Z M13.8433,44.1218 L22.1753,44.1218 L22.1753,42.3208 L13.8433,42.3208 L13.8433,44.1218 Z M13.9593,45.3758 C14.1353,45.9948 14.4683,46.5528 14.6513,46.8308 L14.7103,46.9208 L21.3073,46.9208 L21.3663,46.8308 C21.5483,46.5548 21.8793,45.9998 22.0583,45.3758 L22.1313,45.1208 L13.8873,45.1208 L13.9593,45.3758 Z M14.4593,47.9208 C14.3053,47.9208 14.1623,47.8508 14.0673,47.7298 C13.9423,47.5688 12.8443,46.1128 12.8443,44.6208 L12.8443,41.9428 L11.5603,38.3108 L11.4983,38.2738 C7.6593,35.9868 5.2763,31.7928 5.2763,27.3288 C5.2763,20.3068 10.9883,14.5948 18.0093,14.5948 C25.0303,14.5948 30.7433,20.3068 30.7433,27.3288 C30.7433,31.7908 28.3603,35.9848 24.5213,38.2738 L24.4593,38.3108 L23.1863,41.8758 L23.1743,44.6208 C23.1743,46.1668 22.0013,47.6668 21.9513,47.7298 C21.8563,47.8508 21.7133,47.9208 21.5603,47.9208 L14.4593,47.9208 Z" id="Fill-29" fill="#2290D8" mask="url(#mask-2)"></path>
                    <path d="M18.0093,31.9908 C18.7403,31.9908 19.4193,32.3218 19.8723,32.8998 L20.0963,33.1858 L21.6113,28.9438 L21.4763,28.8578 C20.4443,28.2038 19.2453,27.8578 18.0093,27.8578 C16.7763,27.8578 15.5773,28.2048 14.5433,28.8608 L14.4083,28.9468 L15.9223,33.1848 L16.1463,32.8998 C16.6003,32.3218 17.2793,31.9908 18.0093,31.9908 M18.0093,32.9898 C17.2563,32.9898 16.6433,33.6028 16.6433,34.3558 L16.6433,34.7898 L19.3753,34.7898 L19.3753,34.3558 C19.3753,33.6028 18.7623,32.9898 18.0093,32.9898 M19.8753,39.5218 C19.6003,39.5218 19.3753,39.2978 19.3753,39.0218 L19.3753,35.7898 L16.6423,35.7898 L16.6423,39.0218 C16.6423,39.2978 16.4183,39.5218 16.1433,39.5218 C15.8673,39.5218 15.6433,39.2978 15.6433,39.0218 L15.6433,35.4108 L13.3413,28.9278 C13.2673,28.7198 13.3353,28.4928 13.5113,28.3608 C14.8183,27.3778 16.3733,26.8578 18.0093,26.8578 C19.6473,26.8578 21.2033,27.3768 22.5093,28.3578 C22.6853,28.4898 22.7533,28.7188 22.6793,28.9258 L20.3873,35.3438 L20.3753,39.0218 C20.3753,39.2978 20.1513,39.5218 19.8753,39.5218" id="Fill-30" fill="#2290D8" mask="url(#mask-2)"></path>
                </g>
            </g>
        </g>
    </g>
</svg>