<?xml version="1.0" encoding="UTF-8"?>
<svg width="33px" height="33px" viewBox="0 0 33 33" version="1.1" xmlns="http://www.w3.org/2000/svg" xmlns:xlink="http://www.w3.org/1999/xlink">
    <!-- Generator: sketchtool 49.3 (51167) - http://www.bohemiancoding.com/sketch -->
    <title>950BA5A8-D061-4961-8AE9-4DCBBFAFF050</title>
    <desc>Created with sketchtool.</desc>
    <defs></defs>
    <g id="Desk" stroke="none" stroke-width="1" fill="none" fill-rule="evenodd">
        <g id="123---Assets" transform="translate(-769.000000, -1539.000000)" fill="#3ABBE8">
            <g id="identity" transform="translate(769.000000, 1539.000000)">
                <path d="M28.4893551,5.36754152 C28.1161459,4.98005026 27.5110519,4.98005026 27.1377597,5.36754152 L23.1722879,9.48476546 L21.0930511,7.32595957 C20.7197588,6.93846831 20.1146648,6.93846831 19.7414557,7.32595957 C19.3682466,7.71345082 19.3682466,8.34178703 19.7413726,8.72919202 L22.4645033,11.5565325 C22.65925,11.7587318 22.9171398,11.854397 23.1722879,11.8455982 C23.427436,11.854397 23.6853259,11.7587318 23.8799895,11.5565325 L28.4893551,6.77086023 C28.8624811,6.38336898 28.8625642,5.75503277 28.4893551,5.36754152" id="Fill-Copy"></path>
                <path d="M30.3018109,31.3039108 L2.69818906,31.3039108 C2.14768856,31.3039108 1.69982511,30.8570317 1.69982511,30.3076603 L1.69982511,11.3071806 C1.69982511,10.75789 2.14768856,10.3110109 2.69818906,10.3110109 L15.7772101,10.3110109 C16.564391,14.263141 20.0588267,17.2422813 24.2509192,17.2422813 C27.160696,17.2422813 29.734555,15.806986 31.3001749,13.6073199 L31.3001749,30.3076603 C31.3001749,30.8570317 30.8523114,31.3039108 30.3018109,31.3039108 M24.2509192,1.69616997 C28.0777921,1.69616997 31.1912242,4.8026785 31.1912242,8.62122143 C31.1912242,8.66911576 31.188634,8.71636396 31.1875817,8.76409675 C31.1751163,9.37444657 31.0832448,9.96541251 30.9216805,10.5275449 C30.0896566,13.4215577 27.4151841,15.5462729 24.2509192,15.5462729 C21.0081386,15.5462729 18.2784623,13.3152695 17.5205021,10.3110109 L17.5205021,10.3107686 C17.5007518,10.2325869 17.4827013,10.1537592 17.465703,10.0745276 C17.4567992,10.0330138 17.4483001,9.99141921 17.4401247,9.94966311 C17.4250691,9.87253143 17.4109039,9.79523822 17.3984385,9.71729889 C17.3928534,9.68216561 17.3878348,9.64695157 17.3827354,9.61165676 C17.3718079,9.53597887 17.3620137,9.45997792 17.3535955,9.38349238 C17.3504387,9.35522422 17.347039,9.32703684 17.3442869,9.29860715 C17.3348165,9.20193007 17.3273696,9.10468762 17.3220273,9.00687981 C17.3206513,8.98353839 17.31968,8.96003544 17.3187086,8.93661325 C17.3139329,8.83194032 17.3106142,8.72694432 17.3106142,8.62122143 C17.3106142,4.8026785 20.4240463,1.69616997 24.2509192,1.69616997 M32.7500448,10.179039 C32.8424829,9.67376593 32.8910493,9.15314731 32.8910493,8.62114066 C32.8910493,3.85981443 29.022733,0 24.2509192,0 C19.4812099,0 15.6142697,3.85650302 15.6108701,8.61492167 L2.69818906,8.61492167 C1.20800905,8.61492167 0,9.82027573 0,11.3071806 L0,30.3076603 C0,31.7945652 1.20800905,33 2.69818906,33 L30.3018109,33 C31.791991,33 33,31.7945652 33,30.3076603 L33,11.3071806 C33,10.9038344 32.9093427,10.5223759 32.7500448,10.179039" id="Fill-3"></path>
                <path d="M27.1121902,27.9230769 L18.5801175,27.9230769 C18.1322763,27.9230769 17.7692308,27.5442598 17.7692308,27.0769634 C17.7692308,26.6095864 18.1322763,26.2307692 18.5801175,26.2307692 L27.1121902,26.2307692 C27.5601086,26.2307692 27.9230769,26.6095864 27.9230769,27.0769634 C27.9230769,27.5442598 27.5601086,27.9230769 27.1121902,27.9230769" id="Fill-5"></path>
                <path d="M27.1121902,24.5384615 L18.5801175,24.5384615 C18.1322763,24.5384615 17.7692308,24.1596264 17.7692308,23.6923077 C17.7692308,23.224989 18.1322763,22.8461538 18.5801175,22.8461538 L27.1121902,22.8461538 C27.5601086,22.8461538 27.9230769,23.224989 27.9230769,23.6923077 C27.9230769,24.1596264 27.5601086,24.5384615 27.1121902,24.5384615" id="Fill-7"></path>
                <path d="M18.6153846,21.1538462 C18.1480659,21.1538462 17.7692308,20.775011 17.7692308,20.3076923 C17.7692308,19.8403736 18.1480659,19.4615385 18.6153846,19.4615385 C19.0827839,19.4615385 19.4615385,19.8403736 19.4615385,20.3076923 C19.4615385,20.775011 19.0827839,21.1538462 18.6153846,21.1538462" id="Fill-9"></path>
                <path d="M22.8461538,21.1538462 C22.3788352,21.1538462 22,20.775011 22,20.3076923 C22,19.8403736 22.3788352,19.4615385 22.8461538,19.4615385 C23.3135531,19.4615385 23.6923077,19.8403736 23.6923077,20.3076923 C23.6923077,20.775011 23.3135531,21.1538462 22.8461538,21.1538462" id="Fill-11"></path>
                <path d="M27.0769231,21.1538462 C26.6096044,21.1538462 26.2307692,20.775011 26.2307692,20.3076923 C26.2307692,19.8403736 26.6096044,19.4615385 27.0769231,19.4615385 C27.5443223,19.4615385 27.9230769,19.8403736 27.9230769,20.3076923 C27.9230769,20.775011 27.5443223,21.1538462 27.0769231,21.1538462" id="Fill-13"></path>
                <path d="M13.2983796,26.2284931 L7.0093916,26.2284931 C6.85760722,26.2284931 6.7344748,26.1026097 6.7344748,25.9475149 L6.7344748,24.6265464 C6.7344748,22.6704318 8.30030867,21.0358039 10.2134391,21.0693728 C12.0715546,21.1019734 13.5732175,22.6573593 13.5732175,24.5645731 L13.5732175,25.9475149 C13.5732175,26.1026097 13.450164,26.2284931 13.2983796,26.2284931 M9.99187967,15.2396815 C11.2140478,15.1400239 12.2307585,16.1793686 12.1332786,17.4289225 C12.0566366,18.4121039 11.2775084,19.208639 10.3157337,19.2869934 C9.0936445,19.3864897 8.07717063,18.3473063 8.17441367,17.0979138 C8.25097677,16.1146517 9.03010501,15.3180359 9.99187967,15.2396815 M12.6050494,20.0190536 C13.3955437,19.2837656 13.8684196,18.1978601 13.7885414,17.001726 C13.6627253,15.1182364 12.1410928,13.612881 10.2957642,13.5412243 C8.21893077,13.4605299 6.5103896,15.157938 6.5103896,17.2632568 C6.5103896,18.3554564 6.9702418,19.3377502 7.70264287,20.0191343 C6.13736153,20.9032229 5.07692308,22.6070059 5.07692308,24.5645731 L5.07692308,27.1568829 C5.07692308,27.5800447 5.41245891,27.9230769 5.82637325,27.9230769 L14.4813191,27.9230769 C14.8952334,27.9230769 15.2307692,27.5800447 15.2307692,27.1568829 L15.2307692,24.5645731 C15.2307692,22.6070059 14.1703308,20.9032229 12.6050494,20.0190536" id="Fill-15"></path>
            </g>
        </g>
    </g>
</svg>