<?xml version="1.0" encoding="UTF-8"?>
<svg width="40px" height="26px" viewBox="0 0 40 26" version="1.1" xmlns="http://www.w3.org/2000/svg" xmlns:xlink="http://www.w3.org/1999/xlink">
    <!-- Generator: sketchtool 49.3 (51167) - http://www.bohemiancoding.com/sketch -->
    <title>07C700AE-B2E7-41E7-934F-A2F8A1514202</title>
    <desc>Created with sketchtool.</desc>
    <defs></defs>
    <g id="Desk" stroke="none" stroke-width="1" fill="none" fill-rule="evenodd">
        <g id="123---Assets" transform="translate(-1080.000000, -1288.000000)" fill="#2290D8">
            <path d="M1086.54929,1288 L1097.28399,1304.72947 L1097.28399,1290.72042 C1097.28399,1289.96395 1097.55411,1289.31712 1098.07522,1288.79132 C1098.59544,1288.26443 1099.23595,1288 1099.98377,1288 L1108.22404,1288 C1112.17158,1288 1115.16292,1289.04235 1117.08264,1291.16937 C1119.04481,1293.36501 1120,1296.66766 1120,1300.98924 C1120,1303.31393 1119.68526,1305.42142 1118.9586,1307.26448 C1118.18861,1309.19453 1117.09271,1310.64295 1115.80343,1311.65358 C1114.70855,1312.50752 1113.51549,1313.11126 1112.27889,1313.46179 C1110.38256,1314.01121 1107.95277,1313.99998 1105.95827,1313.99998 L1105.95827,1311.78284 C1105.95827,1310.44611 1106.98744,1309.34829 1108.2999,1309.27042 C1110.02327,1309.16179 1111.68186,1308.75694 1112.95078,1307.34126 C1114.03565,1306.12365 1114.59922,1304.01711 1114.59922,1300.98924 C1114.59922,1298.07089 1114.05796,1295.93167 1113.02664,1294.57248 C1112.01884,1293.23378 1110.41488,1292.53061 1108.22404,1292.53061 L1102.68362,1292.53061 L1102.68362,1313.99998 L1097.28399,1313.99998 L1085.39863,1296.14077 L1085.39863,1313.99998 L1080,1314 L1080,1290.72042 C1080,1289.96395 1080.26105,1289.31712 1080.7913,1288.79132 C1081.31246,1288.26443 1081.95203,1288 1082.69979,1288 L1086.54929,1288 Z" id="ND-1"></path>
        </g>
    </g>
</svg>