<?xml version="1.0" encoding="UTF-8"?>
<svg width="45px" height="45px" viewBox="0 0 45 45" version="1.1" xmlns="http://www.w3.org/2000/svg" xmlns:xlink="http://www.w3.org/1999/xlink">
    <!-- Generator: sketchtool 49.3 (51167) - http://www.bohemiancoding.com/sketch -->
    <title>1B9C1412-5C43-4C37-8FDB-738C01E3619E</title>
    <desc>Created with sketchtool.</desc>
    <defs>
        <path d="M0.426176471,22.5079918 C0.426176471,34.7780738 10.3102941,44.7278689 22.5026471,44.7278689 C34.6976471,44.7278689 44.5844118,34.7780738 44.5844118,22.5079918 C44.5844118,10.2352459 34.6976471,0.288114754 22.5026471,0.288114754 C10.3102941,0.288114754 0.426176471,10.2352459 0.426176471,22.5079918 Z M30.285,14.8385246 C31.1982353,13.9194672 32.6779412,13.9194672 33.5885294,14.8385246 C34.5017647,15.754918 34.5017647,17.2440574 33.5885294,18.1631148 L21.6529412,30.1747951 C20.9514706,30.8807377 19.9164706,31.0432377 19.0588235,30.6622951 C18.7279412,30.5504098 18.4182353,30.3639344 18.1508824,30.097541 L12.3988235,24.3061475 C11.4855882,23.3870902 11.4855882,21.9006148 12.3988235,20.9815574 C13.3120588,20.0651639 14.7891176,20.0651639 15.6997059,20.9815574 L19.9402941,25.2465164 L30.285,14.8385246 Z" id="path-1"></path>
    </defs>
    <g id="Desk" stroke="none" stroke-width="1" fill="none" fill-rule="evenodd">
        <g id="123---Assets" transform="translate(-1259.000000, -760.000000)">
            <g id="ok" transform="translate(1259.000000, 760.000000)">
                <mask id="mask-2" fill="white">
                    <use xlink:href="#path-1"></use>
                </mask>
                <g id="Clip-29"></g>
                <polygon id="Fill-28" fill="#10E2E6" mask="url(#mask-2)" points="-9.61147059 54.8268443 54.6194118 54.8268443 54.6194118 -9.81352459 -9.61147059 -9.81352459"></polygon>
            </g>
        </g>
    </g>
</svg>