<?xml version="1.0" encoding="UTF-8"?>
<svg width="28px" height="41px" viewBox="0 0 28 41" version="1.1" xmlns="http://www.w3.org/2000/svg" xmlns:xlink="http://www.w3.org/1999/xlink">
    <!-- Generator: sketchtool 49.3 (51167) - http://www.bohemiancoding.com/sketch -->
    <title>81B468B1-7559-4DB0-A1F4-B488A3421364</title>
    <desc>Created with sketchtool.</desc>
    <defs></defs>
    <g id="Desk" stroke="none" stroke-width="1" fill="none" fill-rule="evenodd">
        <g id="123---Assets" transform="translate(-631.000000, -1535.000000)" fill="#3ABBE8">
            <g id="pay" transform="translate(631.000000, 1535.000000)">
                <path d="M23.8940217,39.0918895 C23.8927218,39.0995019 23.8902031,39.1071142 23.8876845,39.1146456 C23.8660728,39.186801 23.7962819,39.2626817 23.6909048,39.2715897 C23.6769304,39.2715897 23.6617372,39.270294 23.6452441,39.270294 L23.3608805,39.270294 L23.3583618,39.2715897 L13.0174369,39.2715897 C12.8980854,39.2715897 12.8168387,39.186801 12.7978269,39.1020123 L12.788971,39.0666229 L12.331958,37.6645723 L5.50365542,28.7832177 C5.27770819,28.4897369 5.18126829,28.1266922 5.23074756,27.7622708 C5.28022684,27.395258 5.47188794,27.0688174 5.77022604,26.8436049 C6.01778491,26.6589648 6.31230441,26.5601661 6.62201706,26.5601661 C7.06757428,26.5601661 7.47632672,26.7601929 7.74419729,27.1067172 L10.7375716,31.0014913 L10.7375716,13.5793135 C10.7375716,13.0118689 11.3151548,12.4949574 11.9498545,12.4949574 C12.5896727,12.4949574 13.1952048,13.0219917 13.1952048,13.5793135 L13.1952048,20.9688079 L13.1952048,24.5737455 L13.1965048,24.5737455 C13.1965048,24.5786854 13.1952048,24.5838683 13.1952048,24.5888892 C13.1952048,25.0646616 13.5836456,25.4518391 14.0621077,25.4518391 C14.5407324,25.4518391 14.9279544,25.0646616 14.9279544,24.5888892 L14.9279544,24.5737455 L14.9279544,20.9688079 C14.9279544,20.4215279 15.5791472,19.8843708 16.2404958,19.8843708 C16.2685259,19.8843708 16.2963936,19.8862334 16.3217426,19.8881769 L16.3687032,19.8900395 C17.0302143,19.902025 17.6800259,20.4391821 17.6800259,20.9732619 L17.6800259,22.4251168 L17.6800259,24.5736645 L17.6800259,24.5888082 C17.6800259,25.0645806 18.0672479,25.4517581 18.5457913,25.4517581 C19.0243347,25.4517581 19.4127755,25.0645806 19.4127755,24.5888082 C19.4127755,24.5838683 19.4114756,24.5786854 19.4114756,24.5736645 L19.4127755,24.5736645 L19.4127755,22.4251168 C19.4127755,21.8784847 20.0677869,21.3414895 20.7368539,21.3414895 C21.3918653,21.3414895 22.0596324,21.8886075 22.0596324,22.4251168 L22.0596324,23.3816825 L22.0596324,24.5736645 L22.0609324,24.5736645 C22.0609324,24.5786044 22.0596324,24.5837873 22.0596324,24.5888082 C22.0596324,25.0645806 22.4480732,25.4517581 22.9266978,25.4517581 C23.4052412,25.4517581 23.793682,25.0645806 23.793682,24.5888082 C23.793682,24.5838683 23.792382,24.5786854 23.792382,24.5736645 L23.793682,24.5736645 L23.793682,23.3816825 C23.793682,22.8654189 24.556589,22.2985411 25.2510051,22.2985411 C25.8997604,22.2985411 26.2386407,22.8427438 26.2386407,23.3816825 L26.2386407,23.4221738 L26.243678,23.4664713 C26.2475778,23.5108497 26.6258627,27.9584105 23.8940217,39.0918895 M8.66537303,15.6051726 C4.80525829,15.6051726 1.67620188,12.4857253 1.67620188,8.63759723 C1.67620188,4.79011697 4.80525829,1.67075069 8.66537303,1.67075069 C12.526544,1.67075069 15.6556004,4.79011697 15.6556004,8.63759723 C15.6556004,9.98960066 15.2679721,11.2505797 14.5993113,12.3187394 C14.1002937,11.4074429 13.0878778,10.767114 11.9498545,10.767114 C10.3528682,10.767114 9.0034408,12.0552222 9.0034408,13.5793135 L9.0034408,15.5967504 C8.89140152,15.6021763 8.77871226,15.6051726 8.66537303,15.6051726 M27.9727715,23.3412723 C27.9512411,21.7848689 26.764226,20.5708597 25.2510051,20.5708597 C24.6289799,20.5708597 23.9764872,20.7758265 23.4243342,21.1301251 C22.8976115,20.2443381 21.8642339,19.6135652 20.7369352,19.6135652 C20.1923382,19.6135652 19.6705715,19.7603055 19.217377,20.0115133 C19.0523649,19.6211775 18.7883942,19.2611292 18.4341583,18.9555821 C17.8704683,18.46912 17.1368101,18.1806602 16.4182637,18.162925 C16.3687844,18.1604146 16.3090681,18.1572562 16.2404958,18.1572562 C15.7783643,18.1572562 15.3302884,18.2641532 14.9278732,18.4521136 L14.9278732,14.6084396 C16.4169638,13.0573001 17.331721,10.9540217 17.331721,8.63751625 C17.331721,3.86740196 13.4523508,0 8.66521054,0 C3.87945147,0 0,3.86740196 0,8.63751625 C0,13.4085213 3.87945147,17.2758423 8.66521054,17.2758423 C8.77854977,17.2758423 8.89123902,17.2735748 9.0034408,17.2692827 L9.0034408,25.9148972 C8.4067646,25.2240352 7.54863634,24.8317558 6.62193581,24.8317558 C5.93133836,24.8317558 5.27502705,25.0519473 4.72539272,25.4669828 C4.05510697,25.9706942 3.62482413,26.7032622 3.51310984,27.529527 C3.40139555,28.3544961 3.61970559,29.1717719 4.12879778,29.8348569 L10.7755951,38.4794996 L11.1183752,39.534783 C11.3392851,40.3990286 12.1148667,41 13.0175181,41 L23.7696329,41 L23.7784888,40.9974895 C24.5858379,40.9519774 25.296747,40.40656 25.5404873,39.6360112 C25.5493432,39.6107446 25.559499,39.5777847 25.5684362,39.5398039 C28.2837841,28.4885222 28.0159135,23.8700882 27.9727715,23.3412723" id="Fill-3"></path>
                <path d="M13.2951109,5.30779152 C12.9208736,4.92461371 12.3141127,4.92461371 11.9397921,5.30779152 L7.96339617,9.37918365 L5.87843137,7.244409 C5.50411079,6.86123119 4.89734988,6.86123119 4.52311261,7.244409 C4.14887534,7.6275868 4.14887534,8.24892855 4.5230293,8.63202105 L7.25366169,11.4278883 C7.44894489,11.6278368 7.70754518,11.7224371 7.96339617,11.7137362 C8.21924716,11.7224371 8.47784744,11.6278368 8.67304733,11.4278883 L13.2951109,6.69548888 C13.6692648,6.31231107 13.6693481,5.69096932 13.2951109,5.30779152" id="Fill"></path>
            </g>
        </g>
    </g>
</svg>