<?xml version="1.0" encoding="UTF-8"?>
<svg width="32px" height="18px" viewBox="0 0 32 18" version="1.1" xmlns="http://www.w3.org/2000/svg" xmlns:xlink="http://www.w3.org/1999/xlink">
    <!-- Generator: sketchtool 49.3 (51167) - http://www.bohemiancoding.com/sketch -->
    <title>6B479EED-69E5-4D7C-BB1E-319169E47C40</title>
    <desc>Created with sketchtool.</desc>
    <defs></defs>
    <g id="Desk" stroke="none" stroke-width="1" fill="none" fill-rule="evenodd">
        <g id="123---Assets" transform="translate(-1013.000000, -1547.000000)" fill="#3ABBE8">
            <g id="ticket" transform="translate(1013.000000, 1547.000000)">
                <path d="M30.1250918,15.9923851 L10.0664796,15.9923851 L10.0664796,6.84296462 L30.1250918,6.84296462 L30.1262882,15.9923851 L30.1250918,15.9923851 Z M1.87499366,4.83534974 L8.1914859,4.83534974 L8.1914859,2.00761488 L1.87499366,2.00761488 L1.87499366,4.83534974 Z M1.87499366,15.9923851 L8.1914859,15.9923851 L8.1914859,6.84296462 L1.87499366,6.84296462 L1.87499366,15.9923851 Z M10.0664796,2.00761488 L30.1250918,2.00761488 L30.1253482,4.83534974 L30.1250918,4.83534974 L10.0664796,4.83534974 L10.0664796,2.00761488 Z M30.1250918,0 L1.87499366,0 C0.841145006,0 0,0.900549004 0,2.00761488 L0,15.9923851 C0,17.099451 0.841145006,18 1.87499366,18 L30.1250918,18 C31.1589405,18 32,17.099451 32,15.9923851 L32,2.00761488 C32,0.900549004 31.1589405,0 30.1250918,0 Z" id="Fill-1"></path>
                <rect id="Rectangle-14-Copy" transform="translate(17.684211, 12.000000) rotate(90.000000) translate(-17.684211, -12.000000) " x="16" y="11.1428571" width="3.36842105" height="1.71428571" rx="0.857142857"></rect>
                <rect id="Rectangle-14-Copy-2" transform="translate(21.052632, 12.000000) rotate(90.000000) translate(-21.052632, -12.000000) " x="19.3684211" y="11.1428571" width="3.36842105" height="1.71428571" rx="0.857142857"></rect>
                <rect id="Rectangle-14-Copy-3" transform="translate(24.421053, 12.000000) rotate(90.000000) translate(-24.421053, -12.000000) " x="22.7368421" y="11.1428571" width="3.36842105" height="1.71428571" rx="0.857142857"></rect>
                <rect id="Rectangle-14-Copy-4" transform="translate(27.789474, 12.000000) rotate(90.000000) translate(-27.789474, -12.000000) " x="26.1052632" y="11.1428571" width="3.36842105" height="1.71428571" rx="0.857142857"></rect>
            </g>
        </g>
    </g>
</svg>