<?xml version="1.0" encoding="UTF-8"?>
<svg width="22px" height="22px" viewBox="0 0 22 22" version="1.1" xmlns="http://www.w3.org/2000/svg" xmlns:xlink="http://www.w3.org/1999/xlink">
    <!-- Generator: sketchtool 49.3 (51167) - http://www.bohemiancoding.com/sketch -->
    <title>39BDF51A-29EE-4319-862C-801A9825268C</title>
    <desc>Created with sketchtool.</desc>
    <defs></defs>
    <g id="Desk" stroke="none" stroke-width="1" fill="none" fill-rule="evenodd">
        <g id="123---Assets" transform="translate(-673.000000, -517.000000)" fill="#FF445A">
            <path d="M687.673768,530.092035 C688.108744,530.527011 688.108744,531.238791 687.673768,531.673768 C687.238791,532.108744 686.527011,532.108744 686.092035,531.673768 L683.999991,529.581796 L681.908019,531.673768 C681.473043,532.108744 680.761263,532.108744 680.326287,531.673768 C679.891238,531.238791 679.891238,530.527011 680.326287,530.092035 L682.418258,527.999991 L680.326287,525.908019 C679.891238,525.473043 679.891238,524.761263 680.326287,524.326287 C680.761263,523.891238 681.473043,523.891238 681.908019,524.326287 L683.999991,526.418258 L686.092035,524.326287 C686.527011,523.891238 687.238791,523.891238 687.673768,524.326287 C688.108744,524.761263 688.108744,525.473043 687.673768,525.908019 L685.581796,527.999991 L687.673768,530.092035 Z M684,517 C677.924922,517 673,521.924922 673,528 C673,534.075154 677.924922,539 684,539 C690.075154,539 695,534.075154 695,528 C695,521.924922 690.075154,517 684,517 Z" id="ícone-erro"></path>
        </g>
    </g>
</svg>