<?xml version="1.0" encoding="UTF-8"?>
<svg width="17px" height="18px" viewBox="0 0 17 18" version="1.1" xmlns="http://www.w3.org/2000/svg" xmlns:xlink="http://www.w3.org/1999/xlink">
    <!-- Generator: sketchtool 49.3 (51167) - http://www.bohemiancoding.com/sketch -->
    <title>84842DEB-EC7A-4720-A22F-1E156BF4C8B4</title>
    <desc>Created with sketchtool.</desc>
    <defs></defs>
    <g id="Desk" stroke="none" stroke-width="1" fill="none" fill-rule="evenodd">
        <g id="123---Assets" transform="translate(-975.000000, -515.000000)" fill="#3ABBE8">
            <path d="M989.33283,529.850038 C989.295819,530.074054 989.040687,530.391023 988.889479,530.446078 C988.758465,530.495015 988.635331,530.545008 988.513324,530.592047 C987.967878,530.811 987.496523,531 986.003512,531 C984.088117,531 981.882621,530.247023 981.368204,529.854046 C981.210101,529.734023 981,529.289999 981,529.00003 L981,524.020004 C981.002955,523.973035 981.051012,523.363988 981.70749,522.708042 C982.62114,521.79405 984.002065,520.414025 984.002065,517.499992 C984.002065,517.225 984.227223,517 984.502479,517 C984.777665,517 985.002823,517.225 985.002823,517.499992 C985.002823,518.907017 984.856681,520.230017 984.523447,521.792995 L984.226238,523.18905 L985.548199,523.001035 C986.151623,523.051027 989.483897,523.448011 989.885242,523.551019 C989.94329,523.581043 990.017382,523.734043 989.996343,523.874035 L989.33283,529.850038 Z M978,530 C977.448952,530 977,529.55204 977,529.000018 L977,523.000053 C977,522.44803 977.448952,522 978,522 C978.550977,522 979,522.44803 979,523.000053 L979,529.000018 C979,529.55204 978.550977,530 978,530 Z M990.569074,521.676031 C990.178021,521.531961 988.05718,521.269977 986.686244,521.115992 C986.901246,519.860984 986.999255,518.711023 986.999255,517.499961 C986.999255,516.120992 985.87728,515 984.499454,515 C983.121488,515 981.999583,516.120992 981.999583,517.499961 C981.999583,519.374984 981.333626,520.238 980.383694,521.198961 C979.835714,520.476992 978.976761,519.999992 977.999831,519.999992 C976.345906,519.999992 975,521.345984 975,523.000016 L975,528.999992 C975,530.654023 976.345906,531.999945 977.999831,531.999945 C978.754799,531.999945 979.4377,531.709977 979.964729,531.248023 C980.028709,531.310039 980.081722,531.389 980.152662,531.440961 C981.112648,532.176992 983.819506,533 986.000319,533 C987.87923,533 988.608113,532.707008 989.253119,532.446992 C989.357105,532.406 989.460106,532.362969 989.569083,532.324016 C990.403006,532.019 991.144967,531.096992 991.304988,530.123938 L991.970945,524.149977 C992.143903,523.113008 991.527934,522.024992 990.569074,521.676031 Z" id="ícone-negociacao"></path>
        </g>
    </g>
</svg>