<?xml version="1.0" encoding="UTF-8"?>
<svg width="22px" height="22px" viewBox="0 0 22 22" version="1.1" xmlns="http://www.w3.org/2000/svg" xmlns:xlink="http://www.w3.org/1999/xlink">
    <!-- Generator: sketchtool 49.3 (51167) - http://www.bohemiancoding.com/sketch -->
    <title>3EC6CB79-F557-4C2F-81D0-F953A899F952</title>
    <desc>Created with sketchtool.</desc>
    <defs></defs>
    <g id="Desk" stroke="none" stroke-width="1" fill="none" fill-rule="evenodd">
        <g id="123---Assets" transform="translate(-630.000000, -517.000000)" fill="#10E2E6">
            <path d="M646.523126,525.849706 L640.576669,531.796164 C640.227147,532.145686 639.71101,532.225276 639.284375,532.037263 C639.119338,531.981775 638.963911,531.889645 638.832437,531.758171 L635.965379,528.891113 C635.510887,528.436621 635.510887,527.699734 635.965379,527.245167 C636.41987,526.790751 637.156758,526.790751 637.611249,527.245167 L639.723549,529.357468 L644.877256,524.203836 C645.331747,523.74927 646.068635,523.74927 646.523126,524.203836 C646.977618,524.658328 646.977618,525.395215 646.523126,525.849706 M641,517 C634.924846,517 630,521.924846 630,528 C630,534.075078 634.924846,539 641,539 C647.075154,539 652,534.075078 652,528 C652,521.924846 647.075154,517 641,517" id="ícone-ok"></path>
        </g>
    </g>
</svg>