<?xml version="1.0" encoding="UTF-8"?>
<svg width="13px" height="13px" viewBox="0 0 13 13" version="1.1" xmlns="http://www.w3.org/2000/svg" xmlns:xlink="http://www.w3.org/1999/xlink">
    <!-- Generator: sketchtool 49.3 (51167) - http://www.bohemiancoding.com/sketch -->
    <title>D73DB52A-4961-4D5A-8D25-6A0E84758239</title>
    <desc>Created with sketchtool.</desc>
    <defs></defs>
    <g id="Desk" stroke="none" stroke-width="1" fill="none" fill-rule="evenodd">
        <g id="123---Assets" transform="translate(-879.000000, -1300.000000)" fill="#383A40">
            <g id="ícone-telefones" transform="translate(879.000000, 1300.000000)">
                <path d="M3.38577778,1.69288889 C3.38577778,2.62780556 2.62744444,3.38577778 1.69288889,3.38577778 C0.757972222,3.38577778 0,2.62780556 0,1.69288889 C0,0.757972222 0.757972222,0 1.69288889,0 C2.62744444,0 3.38577778,0.757972222 3.38577778,1.69288889" id="Fill-1"></path>
                <path d="M8.08022222,1.69288889 C8.08022222,2.62780556 7.32225,3.38577778 6.38769444,3.38577778 C5.45241667,3.38577778 4.69444444,2.62780556 4.69444444,1.69288889 C4.69444444,0.757972222 5.45241667,0 6.38769444,0 C7.32225,0 8.08022222,0.757972222 8.08022222,1.69288889" id="Fill-4"></path>
                <path d="M12.7746667,1.69288889 C12.7746667,2.62780556 12.0166944,3.38577778 11.0821389,3.38577778 C10.1472222,3.38577778 9.38888889,2.62780556 9.38888889,1.69288889 C9.38888889,0.757972222 10.1472222,0 11.0821389,0 C12.0166944,0 12.7746667,0.757972222 12.7746667,1.69288889" id="Fill-7"></path>
                <path d="M3.38577778,6.38733333 C3.38577778,7.32225 2.62744444,8.08022222 1.69288889,8.08022222 C0.757972222,8.08022222 0,7.32225 0,6.38733333 C0,5.45241667 0.757972222,4.69444444 1.69288889,4.69444444 C2.62744444,4.69444444 3.38577778,5.45241667 3.38577778,6.38733333" id="Fill-10"></path>
                <path d="M8.08022222,6.38733333 C8.08022222,7.32225 7.32225,8.08022222 6.38769444,8.08022222 C5.45241667,8.08022222 4.69444444,7.32225 4.69444444,6.38733333 C4.69444444,5.45241667 5.45241667,4.69444444 6.38769444,4.69444444 C7.32225,4.69444444 8.08022222,5.45241667 8.08022222,6.38733333" id="Fill-12"></path>
                <path d="M12.7746667,6.38733333 C12.7746667,7.32225 12.0166944,8.08022222 11.0821389,8.08022222 C10.1472222,8.08022222 9.38888889,7.32225 9.38888889,6.38733333 C9.38888889,5.45241667 10.1472222,4.69444444 11.0821389,4.69444444 C12.0166944,4.69444444 12.7746667,5.45241667 12.7746667,6.38733333" id="Fill-14"></path>
                <path d="M3.38577778,11.0817778 C3.38577778,12.0166944 2.62744444,12.7746667 1.69288889,12.7746667 C0.757972222,12.7746667 0,12.0166944 0,11.0817778 C0,10.1468611 0.757972222,9.38888889 1.69288889,9.38888889 C2.62744444,9.38888889 3.38577778,10.1468611 3.38577778,11.0817778" id="Fill-16"></path>
                <path d="M8.08022222,11.0817778 C8.08022222,12.0166944 7.32225,12.7746667 6.38769444,12.7746667 C5.45241667,12.7746667 4.69444444,12.0166944 4.69444444,11.0817778 C4.69444444,10.1468611 5.45241667,9.38888889 6.38769444,9.38888889 C7.32225,9.38888889 8.08022222,10.1468611 8.08022222,11.0817778" id="Fill-19"></path>
                <path d="M12.7746667,11.0817778 C12.7746667,12.0166944 12.0166944,12.7746667 11.0821389,12.7746667 C10.1472222,12.7746667 9.38888889,12.0166944 9.38888889,11.0817778 C9.38888889,10.1468611 10.1472222,9.38888889 11.0821389,9.38888889 C12.0166944,9.38888889 12.7746667,10.1468611 12.7746667,11.0817778" id="Fill-22"></path>
            </g>
        </g>
    </g>
</svg>