<?xml version="1.0" encoding="UTF-8"?>
<svg width="131px" height="97px" viewBox="0 0 131 97" version="1.1" xmlns="http://www.w3.org/2000/svg" xmlns:xlink="http://www.w3.org/1999/xlink">
    <!-- Generator: sketchtool 49.3 (51167) - http://www.bohemiancoding.com/sketch -->
    <title>F01F24D1-A13A-4EAB-95AB-6992ADFEDBC7</title>
    <desc>Created with sketchtool.</desc>
    <defs></defs>
    <g id="Desk" stroke="none" stroke-width="1" fill="none" fill-rule="evenodd">
        <g id="123---Assets" transform="translate(-1054.000000, -730.000000)" fill="#FFFFFE">
            <g id="ícone-doc" transform="translate(1054.000000, 730.000000)">
                <path d="M124.831025,87.2869701 C124.831025,89.2501343 123.229994,90.8470149 121.261729,90.8470149 L9.73827147,90.8470149 C7.77036842,90.8470149 6.16897507,89.2501343 6.16897507,87.2869701 L6.16897507,9.71302985 C6.16897507,7.75022761 7.77036842,6.15298507 9.73827147,6.15298507 L121.261729,6.15298507 C123.229994,6.15298507 124.831025,7.75022761 124.831025,9.71302985 L124.831025,87.2869701 Z M121.261729,0 L9.73827147,0 C4.36001385,0 0,4.34871269 0,9.71302985 L0,87.2869701 C0,92.6512873 4.36001385,97 9.73827147,97 L121.261729,97 C126.639986,97 131,92.6512873 131,87.2869701 L131,9.71302985 C131,4.34871269 126.639986,0 121.261729,0 Z" id="Fill-1"></path>
                <path d="M26.2333333,44.765043 L46.7666667,44.765043 L46.7666667,25.234957 L26.2333333,25.234957 L26.2333333,44.765043 Z M20,51 L53,51 L53,19 L20,19 L20,51 Z" id="Fill-3"></path>
                <path d="M102.901869,25 L70.0981308,25 C68.3941589,25 67,23.65 67,22 C67,20.35 68.3941589,19 70.0981308,19 L102.901869,19 C104.605841,19 106,20.35 106,22 C106,23.65 104.605841,25 102.901869,25" id="Fill-5"></path>
                <path d="M102.901869,50 L70.0981308,50 C68.3941589,50 67,48.65 67,47 C67,45.35 68.3941589,44 70.0981308,44 L102.901869,44 C104.605841,44 106,45.35 106,47 C106,48.65 104.605841,50 102.901869,50" id="Fill-6"></path>
                <path d="M102.928571,75 L23.0714286,75 C21.3821429,75 20,73.65 20,72 C20,70.35 21.3821429,69 23.0714286,69 L102.928571,69 C104.617857,69 106,70.35 106,72 C106,73.65 104.617857,75 102.928571,75" id="Fill-7"></path>
            </g>
        </g>
    </g>
</svg>