<?xml version="1.0" encoding="UTF-8"?>
<svg width="17px" height="17px" viewBox="0 0 17 17" version="1.1" xmlns="http://www.w3.org/2000/svg" xmlns:xlink="http://www.w3.org/1999/xlink">
    <!-- Generator: sketchtool 49.3 (51167) - http://www.bohemiancoding.com/sketch -->
    <title>11194A70-F1CB-4A02-A346-45B8E050512A</title>
    <desc>Created with sketchtool.</desc>
    <defs></defs>
    <g id="Desk" stroke="none" stroke-width="1" fill="none" fill-rule="evenodd">
        <g id="123---Assets" transform="translate(-914.000000, -516.000000)" fill="#3ABBE8">
            <g id="ícone-debito" transform="translate(914.000000, 516.000000)">
                <path d="M8.47078125,15.1305977 C4.79034766,15.1305977 1.81096484,12.1512148 1.81096484,8.47078125 C1.81096484,4.79041406 4.84878516,1.86946875 8.47078125,1.86946875 C12.1511484,1.86946875 15.1305977,4.84878516 15.1305977,8.52921875 C15.1305977,12.2096523 12.1511484,15.1305977 8.47078125,15.1305977 M8.47078125,0 C3.73880469,0 0,3.79724219 0,8.52921875 C0,13.2611953 3.79724219,17 8.47078125,17 C13.1443203,17 17,13.2027578 17,8.47078125 C17,3.73887109 13.2026914,0 8.47078125,0" id="Fill-1"></path>
                <path d="M11.9255085,9.80953641 C11.851017,9.63487863 11.851017,9.51857243 11.7021187,9.34391464 C11.6276272,9.22747612 11.5532203,9.0528845 11.4042373,8.93651214 C11.255339,8.82013977 11.1808475,8.70370125 11.0318645,8.58726273 C10.8829661,8.47089037 10.7340678,8.35451801 10.5105933,8.29629875 C10.3616949,8.17992638 10.1383051,8.12170712 9.98932208,8.06348786 C9.76593223,8.00533476 9.61703388,7.88889624 9.39364404,7.83067698 C9.17016954,7.77245772 8.94686434,7.71430462 8.79788135,7.65608536 C8.72338985,7.65608536 8.5744915,7.5978661 8.5,7.53964684 C8.4255085,7.48149373 8.27661015,7.48149373 8.20211865,7.42327447 C8.12762716,7.36505521 7.97872881,7.36505521 7.90423731,7.30690211 C7.82974581,7.24868285 7.75525431,7.19046359 7.68076281,7.13231049 C7.60635596,7.07409123 7.53186446,7.01587197 7.53186446,6.8994996 C7.45745761,6.84128034 7.45745761,6.72490798 7.45745761,6.66668872 L7.45745761,6.37565858 C7.45745761,6.31743931 7.53186446,6.20106695 7.53186446,6.14284769 C7.60635596,6.08462843 7.60635596,5.96825607 7.68076281,5.91003681 C7.75525431,5.85188371 7.82974581,5.79366445 7.90423731,5.73544518 C7.97872881,5.67729208 8.12762716,5.61907282 8.27661015,5.61907282 C8.4255085,5.56085356 8.5,5.56085356 8.64889835,5.56085356 L8.87237284,5.56085356 L9.09567804,5.56085356 C9.24466104,5.56085356 9.31915254,5.56085356 9.46805089,5.61907282 C9.61703388,5.61907282 9.76593223,5.67729208 9.84042373,5.67729208 C9.91483058,5.67729208 10.0638136,5.73544518 10.1383051,5.73544518 C10.2872034,5.73544518 10.3616949,5.79366445 10.4361018,5.79366445 L10.8085593,5.91003681 L10.8829661,5.56085356 L11.0318645,4.62967619 L11.0318645,4.3968653 L10.7340678,4.33864604 C10.6595763,4.33864604 10.5105933,4.28042678 10.4361018,4.28042678 C10.3616103,4.28042678 10.2872034,4.22220752 10.1383051,4.22220752 C10.0638136,4.22220752 9.91483058,4.16405442 9.76593223,4.16405442 C9.61703388,4.16405442 9.54254239,4.10583516 9.39364404,4.10583516 L9.31915254,4.10583516 L9.31915254,3.29103014 L9.31915254,3 L8.94686434,3 L7.90423731,3 L7.53186446,3 L7.53186446,3.29103014 L7.53186446,4.16405442 L7.45745761,4.16405442 C7.23398312,4.22220752 7.01059327,4.28042678 6.78720342,4.3968653 C6.56381358,4.4550184 6.41483058,4.57145692 6.26593223,4.68782929 C6.11694923,4.80426781 5.96805089,4.92064017 5.81915254,5.09523179 C5.67016954,5.21160416 5.59576269,5.38626194 5.52127119,5.56085356 C5.44677969,5.73544518 5.3722882,5.91003681 5.29788135,6.08462843 C5.22338985,6.25922005 5.22338985,6.49203094 5.22338985,6.66668872 C5.22338985,6.84128034 5.22338985,6.95771886 5.29788135,7.13231049 C5.3722882,7.30690211 5.3722882,7.42327447 5.52127119,7.5978661 C5.59576269,7.71430462 5.74466104,7.88889624 5.81915254,8.00533476 C5.96805089,8.12170712 6.04254239,8.23807949 6.19144073,8.35451801 C6.34042373,8.47089037 6.48932208,8.58726273 6.71271193,8.64548199 C6.86169492,8.76192051 7.08508477,8.82013977 7.23398312,8.87829288 C7.45745761,8.93651214 7.68076281,9.0528845 7.82974581,9.11110376 C8.05313566,9.16932302 8.27661015,9.22747612 8.4255085,9.28569538 C8.5,9.28569538 8.64889835,9.34391464 8.72338985,9.4021339 C8.79788135,9.46035316 8.94686434,9.46035316 9.02118654,9.51857243 C9.09567804,9.57672553 9.17016954,9.63487863 9.24466104,9.63487863 L9.46813554,9.80953641 C9.54254239,9.86775567 9.54254239,9.92597493 9.61703388,10.0423473 C9.61703388,10.1005004 9.69144073,10.2169389 9.69144073,10.3333113 L9.69144073,10.6243414 C9.69144073,10.6824945 9.61703388,10.798933 9.54254239,10.8571523 C9.46813554,10.9153716 9.39364404,10.9735908 9.31915254,11.0317439 C9.24466104,11.0899632 9.17016954,11.1481163 9.02118654,11.2063356 C8.94686434,11.2645548 8.79788135,11.2645548 8.72338985,11.3227741 C8.64889835,11.3227741 8.5,11.3809272 8.351017,11.3809272 L8.05313566,11.3809272 L7.75525431,11.3809272 L7.38296612,11.3809272 C7.23406777,11.3809272 7.08508477,11.3227741 7.01059327,11.3227741 C6.86169492,11.3227741 6.71271193,11.2645548 6.56381358,11.2063356 C6.41483058,11.1481163 6.26593223,11.1481163 6.11694923,11.0899632 C6.04254239,11.0899632 5.96805089,11.0317439 5.89355939,11.0317439 C5.81915254,11.0317439 5.74466104,10.9735908 5.67016954,10.9735908 L5.22338985,10.798933 L5.14889835,11.2063356 L5,12.2539515 L5,12.4286092 L5.22338985,12.4867623 C5.52127119,12.4286092 5.67016954,12.4867623 5.89355939,12.5449816 C6.04254239,12.6032009 6.26593223,12.661354 6.41483058,12.661354 C6.56381358,12.7195732 6.78720342,12.7195732 7.01059327,12.7777925 C7.23406777,12.8359456 7.38296612,12.8359456 7.60635596,12.8359456 L7.75525431,12.8359456 L7.75525431,13.7089699 L7.75525431,14 L8.12762716,14 L9.17016954,14 L9.54254239,14 L9.54254239,13.7089699 L9.54254239,12.7777925 L9.61703388,12.7777925 C9.84042373,12.7195732 10.0638136,12.661354 10.2872034,12.5449816 C10.5105933,12.4867623 10.6595763,12.37039 10.8829661,12.2539515 C11.0318645,12.1375129 11.1808475,12.0212067 11.3297458,11.8465489 C11.4787288,11.7301766 11.5532203,11.555585 11.7021187,11.3809272 C11.7765255,11.2063356 11.851017,11.0317439 11.9255085,10.8571523 C12,10.6824945 12,10.5079691 12,10.2751582 C12,10.1005004 12,9.98412803 11.9255085,9.80953641" id="Fill-3"></path>
            </g>
        </g>
    </g>
</svg>