<?xml version="1.0" encoding="UTF-8"?>
<svg width="24px" height="14px" viewBox="0 0 24 14" version="1.1" xmlns="http://www.w3.org/2000/svg" xmlns:xlink="http://www.w3.org/1999/xlink">
    <!-- Generator: sketchtool 49.3 (51167) - http://www.bohemiancoding.com/sketch -->
    <title>4DD391F3-3D6E-4D31-B3F0-5EADA03B354B</title>
    <desc>Created with sketchtool.</desc>
    <defs></defs>
    <g id="Desk" stroke="none" stroke-width="1" fill="none" fill-rule="evenodd">
        <g id="123---Assets" transform="translate(-846.000000, -518.000000)" fill="#3ABBE8">
            <path d="M848,524.52463 C848,523.765287 848.64903,523.147584 849.446767,523.147584 C850.390627,523.147584 851.267109,522.701027 851.791356,521.952996 L852.729377,520.613327 C852.998682,520.229278 853.448679,520 853.933139,520 L858.063244,520 C858.390007,520 858.711344,520.107311 858.968145,520.302114 L863.310822,523.607714 C863.807528,523.987533 864.432428,524.196696 865.070556,524.196696 L866.002015,524.196696 C867.467848,524.196696 868,525.647611 868,526.622855 C868,527.213559 867.700881,527.665771 867.174878,527.878771 C866.78885,526.709314 865.642649,525.901627 864.348567,525.901627 C863.01625,525.901627 861.824993,526.779543 861.484589,528 L854.515359,528 C854.175007,526.779543 852.983698,525.901627 851.651381,525.901627 C850.359883,525.901627 849.215801,526.704445 848.828532,527.86741 C848.328674,527.640738 848,527.153412 848,526.622954 L848,524.52463 Z M866.338632,522.525288 L865.366915,522.525288 C865.060276,522.525288 864.75972,522.421295 864.520439,522.232402 L859.994557,518.666273 C859.448313,518.236621 858.763368,518 858.065932,518 L853.762101,518 C852.72798,518 851.76784,518.506068 851.193651,519.353758 L850.216389,520.799152 C849.96327,521.171583 849.541082,521.393939 849.087018,521.393939 C847.384859,521.393939 846,522.757879 846,524.434379 L846,526.69697 C846,528.102273 846.996754,529.335758 848.379997,529.656008 C848.705213,531.01825 849.957562,532 851.384365,532 C852.772724,532 854.014143,531.053356 854.368811,529.737409 L861.631189,529.737409 C861.985911,531.053356 863.227384,532 864.615635,532 C866.039315,532 867.290857,531.02122 867.618441,529.662689 C869.024407,529.360258 870,528.150583 870,526.69697 C870,524.674659 868.716798,522.525288 866.338632,522.525288 Z" id="ícone-bem-negociavel"></path>
        </g>
    </g>
</svg>