<?xml version="1.0" encoding="UTF-8"?>
<svg width="66px" height="59px" viewBox="0 0 66 59" version="1.1" xmlns="http://www.w3.org/2000/svg" xmlns:xlink="http://www.w3.org/1999/xlink">
    <!-- Generator: sketchtool 49.3 (51167) - http://www.bohemiancoding.com/sketch -->
    <title>33E4CFF2-8DFE-4C62-A1AD-478CD5BFD11F</title>
    <desc>Created with sketchtool.</desc>
    <defs></defs>
    <g id="Desk" stroke="none" stroke-width="1" fill="none" fill-rule="evenodd">
        <g id="123---Assets" transform="translate(-488.000000, -701.000000)" fill="#FFFFFF">
            <g id="ícone-baloon" transform="translate(488.000000, 701.000000)">
                <path d="M61.257485,0 L4.74251497,0 C2.13413174,0 0,2.13825503 0,4.75167785 L0,41.5771812 C0,44.190604 2.13413174,46.3288591 4.74251497,46.3288591 L43.0778443,46.3288591 L66,59 L66,32.3826846 L66,4.75167785 C66,2.13825503 63.8658683,0 61.257485,0 M61.257485,3.95973154 C61.6858922,3.95973154 62.0479042,4.32244295 62.0479042,4.75167785 L62.0479042,32.3826846 L62.0479042,52.2930067 L44.9871018,42.8617181 L44.0959042,42.3691275 L43.0778443,42.3691275 L4.74251497,42.3691275 C4.31410778,42.3691275 3.95209581,42.0064161 3.95209581,41.5771812 L3.95209581,4.75167785 C3.95209581,4.32244295 4.31410778,3.95973154 4.74251497,3.95973154 L61.257485,3.95973154" id="Fill-1"></path>
                <path d="M39.5,9 C37.014875,9 35,11.014875 35,13.5 C35,15.985125 37.014875,18 39.5,18 C41.985125,18 44,15.985125 44,13.5 C44,11.014875 41.985125,9 39.5,9" id="Fill-3"></path>
                <path d="M45.9226792,23 C44.9506056,23 44.1523891,23.7671467 43.9978049,24.7864533 C43.1425728,30.4184533 38.5371684,34.7333333 32.9998421,34.7333333 C27.4625158,34.7333333 22.8575129,30.4184533 22.0022808,24.7864533 C21.8476966,23.7671467 21.0494801,23 20.0774065,23 L19.9473148,23 C18.760831,23 17.8417577,24.1221333 18.022842,25.3684267 C19.143477,33.08896 25.4212014,39 32.9998421,39 C40.5788843,39 46.8566087,33.08896 47.9772437,25.3684267 C48.1579265,24.1221333 47.2392547,23 46.0527709,23 L45.9226792,23 Z" id="Fill-5"></path>
                <path d="M25,13.2857143 C25.5653152,13.2857143 26.0628564,13.6037143 26.3459127,14.0815714 C26.700331,14.6798571 27.3497658,15 28.0091673,15 C29.5663756,15 30.5327536,13.1425714 29.6851795,11.7381429 C28.6904958,10.0902857 26.9638525,9 25,9 C23.0361475,9 21.3095042,10.0902857 20.3148205,11.7381429 C19.4672464,13.1425714 20.4336244,15 21.9908327,15 C22.6502342,15 23.299669,14.6798571 23.6540873,14.0815714 C23.9371436,13.6037143 24.4346848,13.2857143 25,13.2857143" id="Fill-7"></path>
            </g>
        </g>
    </g>
</svg>