<?xml version="1.0" encoding="UTF-8"?>
<svg width="107px" height="92px" viewBox="0 0 107 92" version="1.1" xmlns="http://www.w3.org/2000/svg" xmlns:xlink="http://www.w3.org/1999/xlink">
    <!-- Generator: sketchtool 49.3 (51167) - http://www.bohemiancoding.com/sketch -->
    <title>6A468309-4E00-49D4-B2A1-45041760376C</title>
    <desc>Created with sketchtool.</desc>
    <defs></defs>
    <g id="Desk" stroke="none" stroke-width="1" fill="none" fill-rule="evenodd">
        <g id="123---Assets" transform="translate(-695.000000, -731.000000)" fill="#FFFFFF">
            <g id="ícone-calendario" transform="translate(695.000000, 731.000000)">
                <path d="M99.729542,25.23214 L7.2132531,25.23214 L7.2132531,15.20394 C7.2132531,13.79454 8.3659495,12.64904 9.78420382,12.64904 L28.6388151,12.64904 L28.6388151,14.46734 C28.6388151,16.32044 30.1504525,17.82264 32.0151942,17.82264 C33.879936,17.82264 35.3915733,16.32044 35.3915733,14.46734 L35.3915733,12.64904 L71.5512218,12.64904 L71.5512218,14.46734 C71.5512218,16.32044 73.0628591,17.82264 74.9276009,17.82264 C76.7923427,17.82264 78.30398,16.32044 78.30398,14.46734 L78.30398,12.64904 L97.1585913,12.64904 C98.5768456,12.64904 99.729542,13.79454 99.729542,15.20394 L99.729542,25.23214 Z M99.729542,82.21424 C99.729542,83.62654 98.5768456,84.76914 97.1585913,84.76914 L9.78420382,84.76914 C8.3659495,84.76914 7.2132531,83.62654 7.2132531,82.21424 L7.2132531,31.94274 L99.729542,31.94274 L99.729542,82.21424 Z M97.1585913,5.93844 L78.30398,5.93844 L78.30398,4.12014 C78.30398,2.26704 76.7923427,0.76194 74.9276009,0.76194 C73.0628591,0.76194 71.5512218,2.26704 71.5512218,4.12014 L71.5512218,5.93844 L35.3915733,5.93844 L35.3915733,4.12014 C35.3915733,2.26704 33.879936,0.76194 32.0151942,0.76194 C30.1504525,0.76194 28.6388151,2.26704 28.6388151,4.12014 L28.6388151,5.93844 L9.78420382,5.93844 C4.63354773,5.93844 0.460494918,10.08544 0.460494918,15.20394 L0.460494918,82.21424 C0.460494918,87.33274 4.63354773,91.48264 9.78420382,91.48264 L97.1585913,91.48264 C102.309247,91.48264 106.4823,87.33274 106.4823,82.21424 L106.4823,15.20394 C106.4823,10.08544 102.309247,5.93844 97.1585913,5.93844 Z" id="Fill-1"></path>
                <path d="M57.1232565,43.68832 C57.1232565,45.69222 55.489054,47.31622 53.4725649,47.31622 C51.4560757,47.31622 49.818955,45.69222 49.818955,43.68832 C49.818955,41.68442 51.4560757,40.06042 53.4725649,40.06042 C55.489054,40.06042 57.1232565,41.68442 57.1232565,43.68832" id="Fill-3"></path>
                <path d="M74.2890946,43.68832 C74.2890946,45.69222 72.6519739,47.31622 70.638403,47.31622 C68.6189956,47.31622 66.9847931,45.69222 66.9847931,43.68832 C66.9847931,41.68442 68.6189956,40.06042 70.638403,40.06042 C72.6519739,40.06042 74.2890946,41.68442 74.2890946,43.68832" id="Fill-5"></path>
                <path d="M91.4537655,43.68832 C91.4537655,45.69222 89.8166448,47.31622 87.8030738,47.31622 C85.7865847,47.31622 84.149464,45.69222 84.149464,43.68832 C84.149464,41.68442 85.7865847,40.06042 87.8030738,40.06042 C89.8166448,40.06042 91.4537655,41.68442 91.4537655,43.68832" id="Fill-7"></path>
                <path d="M22.7942066,58.92463 C22.7942066,60.92853 21.1570859,62.55543 19.1405968,62.55543 C17.1241076,62.55543 15.4899051,60.92853 15.4899051,58.92463 C15.4899051,56.92073 17.1241076,55.29673 19.1405968,55.29673 C21.1570859,55.29673 22.7942066,56.92073 22.7942066,58.92463" id="Fill-9"></path>
                <path d="M39.9588775,58.92463 C39.9588775,60.92853 38.3217568,62.55543 36.3081858,62.55543 C34.2887785,62.55543 32.654576,60.92853 32.654576,58.92463 C32.654576,56.92073 34.2887785,55.29673 36.3081858,55.29673 C38.3217568,55.29673 39.9588775,56.92073 39.9588775,58.92463" id="Fill-11"></path>
                <path d="M57.1232565,58.92463 C57.1232565,60.92853 55.489054,62.55543 53.4725649,62.55543 C51.4560757,62.55543 49.818955,60.92853 49.818955,58.92463 C49.818955,56.92073 51.4560757,55.29673 53.4725649,55.29673 C55.489054,55.29673 57.1232565,56.92073 57.1232565,58.92463" id="Fill-13"></path>
                <path d="M74.2890946,58.92463 C74.2890946,60.92853 72.6519739,62.55543 70.638403,62.55543 C68.6189956,62.55543 66.9847931,60.92853 66.9847931,58.92463 C66.9847931,56.92073 68.6189956,55.29673 70.638403,55.29673 C72.6519739,55.29673 74.2890946,56.92073 74.2890946,58.92463" id="Fill-15"></path>
                <path d="M91.4537655,58.92463 C91.4537655,60.92853 89.8166448,62.55543 87.8030738,62.55543 C85.7865847,62.55543 84.149464,60.92853 84.149464,58.92463 C84.149464,56.92073 85.7865847,55.29673 87.8030738,55.29673 C89.8166448,55.29673 91.4537655,56.92073 91.4537655,58.92463" id="Fill-17"></path>
                <path d="M22.7942066,74.16384 C22.7942066,76.16484 21.1570859,77.79174 19.1405968,77.79174 C17.1241076,77.79174 15.4899051,76.16484 15.4899051,74.16384 C15.4899051,72.15994 17.1241076,70.53304 19.1405968,70.53304 C21.1570859,70.53304 22.7942066,72.15994 22.7942066,74.16384" id="Fill-19"></path>
                <path d="M39.9588775,74.16384 C39.9588775,76.16484 38.3217568,77.79174 36.3081858,77.79174 C34.2887785,77.79174 32.654576,76.16484 32.654576,74.16384 C32.654576,72.15994 34.2887785,70.53304 36.3081858,70.53304 C38.3217568,70.53304 39.9588775,72.15994 39.9588775,74.16384" id="Fill-21"></path>
                <path d="M57.1232565,74.16384 C57.1232565,76.16484 55.489054,77.79174 53.4725649,77.79174 C51.4560757,77.79174 49.818955,76.16484 49.818955,74.16384 C49.818955,72.15994 51.4560757,70.53304 53.4725649,70.53304 C55.489054,70.53304 57.1232565,72.15994 57.1232565,74.16384" id="Fill-23"></path>
                <path d="M74.2890946,74.16384 C74.2890946,76.16484 72.6519739,77.79174 70.638403,77.79174 C68.6189956,77.79174 66.9847931,76.16484 66.9847931,74.16384 C66.9847931,72.15994 68.6189956,70.53304 70.638403,70.53304 C72.6519739,70.53304 74.2890946,72.15994 74.2890946,74.16384" id="Fill-25"></path>
            </g>
        </g>
    </g>
</svg>