<?xml version="1.0" encoding="UTF-8"?>
<svg width="101px" height="101px" viewBox="0 0 101 101" version="1.1" xmlns="http://www.w3.org/2000/svg" xmlns:xlink="http://www.w3.org/1999/xlink">
    <!-- Generator: sketchtool 49.3 (51167) - http://www.bohemiancoding.com/sketch -->
    <title>E5B74059-31EF-4632-9179-09A9EE84FBCA</title>
    <desc>Created with sketchtool.</desc>
    <defs></defs>
    <g id="Desk" stroke="none" stroke-width="1" fill="none" fill-rule="evenodd">
        <g id="123---Assets" transform="translate(-879.000000, -729.000000)" fill="#FFFFFF">
            <path d="M929.5,735 C954.030774,735 974,755.008782 974,779.587438 C974,790.836897 969.789805,801.148529 962.91868,809 C944.031203,803.492299 943.300172,796.813033 943.300172,796.725022 L943.300172,796.871388 L943.095534,796.871388 C943.446569,796.520301 943.797286,796.168576 944.148003,795.787833 C952.188714,786.735459 950.843451,771.238514 950.697372,769.714904 C949.908099,753.543846 938.82678,747.802087 929.558559,747.802087 L929.090724,747.802087 L928.622889,747.802087 C919.35435,747.802087 908.244069,753.543846 907.483758,769.714904 C907.337679,771.209177 906.022013,786.706122 914.033127,795.787833 C914.500962,796.314942 914.998076,796.813033 915.49519,797.281787 C914.880958,798.9811 911.781792,804.371134 896.081001,808.970663 C889.180915,801.119511 885,790.836897 885,779.587438 C885,755.008782 904.969544,735 929.5,735 M913.144071,770.740027 L913.144071,770.563583 C913.845743,755.208159 925.076948,754 928.52832,754 L928.879155,754 L929.113152,754 L929.464306,754 C932.886389,754 944.146565,755.208159 944.848555,770.563583 L944.848555,770.740027 C944.877844,770.887598 946.311114,785.09325 939.730235,792.549766 C937.126982,795.496699 933.646639,796.970486 929.113152,797 L929.025602,797 L928.937734,797 C924.374958,796.940972 920.923904,795.496699 918.32097,792.549766 C911.710802,785.151958 913.114782,770.887598 913.144071,770.740027 M929.029573,824 C917.984847,824 907.82604,820.014407 900,813.421193 C913.171123,809.084409 918.043994,803.809838 919.845404,800.293138 C922.355292,801.377334 925.160914,801.963291 928.261628,801.992637 L928.46832,801.992637 L928.73416,801.992637 L928.940853,801.992637 C932.307407,801.934265 935.349295,801.259951 937.977476,800 C939.660914,803.5167 944.445065,808.967026 958,813.421193 C950.203534,820.014407 940.074299,824 929.029573,824 M893.210565,814.585539 C902.400373,824.06905 915.260032,830 929.5,830 C957.333725,830 980,807.333725 980,779.5 C980,751.666275 957.333725,729 929.5,729 C901.666275,729 879,751.666275 879,779.5 C879,792.770971 884.167449,804.867449 892.564355,813.881163 C892.740449,814.174547 892.975667,814.380363 893.210565,814.585539" id="ícone-people"></path>
        </g>
    </g>
</svg>