<?xml version="1.0" encoding="UTF-8"?>
<svg width="32px" height="32px" viewBox="0 0 32 32" version="1.1" xmlns="http://www.w3.org/2000/svg" xmlns:xlink="http://www.w3.org/1999/xlink">
    <!-- Generator: sketchtool 49.3 (51167) - http://www.bohemiancoding.com/sketch -->
    <title>A23F8BFC-7C03-4A47-8F8C-4C09B2F1407A</title>
    <desc>Created with sketchtool.</desc>
    <defs></defs>
    <g id="Desk" stroke="none" stroke-width="1" fill="none" fill-rule="evenodd">
        <g id="123---Assets" transform="translate(-1372.000000, -506.000000)" stroke="#FFFFFF" stroke-width="2">
            <g id="ícone-fechar" transform="translate(1373.000000, 507.000000)">
                <path d="M15,0 C23.2842453,0 30,6.71575472 30,15 C30,23.2842453 23.2842453,30 15,30 C6.71575472,30 0,23.2842453 0,15 C0,6.71575472 6.71575472,0 15,0 Z" id="Stroke-1"></path>
                <path d="M7.65265368,19.1841667 C6.78244877,20.0539662 6.78244877,21.4778509 7.65265368,22.3476504 C8.5228586,23.2174499 9.94629237,23.2174499 10.8160746,22.3476504 L15.0001585,18.1634836 L19.1838197,22.3476504 C20.0540246,23.2174499 21.4774584,23.2174499 22.3476633,22.3476504 C23.2174456,21.4778509 23.2174456,20.0539662 22.3476633,19.1841667 L18.1635795,15 L22.3476633,10.8162559 C23.2174456,9.94603376 23.2174456,8.52257178 22.3476633,7.65234963 C21.4774584,6.78255012 20.0540246,6.78255012 19.1838197,7.65234963 L15.0001585,11.8365164 L10.8160746,7.65234963 C9.94629237,6.78255012 8.5228586,6.78255012 7.65265368,7.65234963 C6.78244877,8.52257178 6.78244877,9.94603376 7.65265368,10.8162559 L11.8363149,15 L7.65265368,19.1841667 Z" id="Stroke-3"></path>
            </g>
        </g>
    </g>
</svg>